<svg width="535" height="964" viewBox="0 0 535 964" fill="none" xmlns="http://www.w3.org/2000/svg">
<g opacity="0.15">
<path d="M243.694 806.415L422.647 550.845L334.675 251.775L46.0225 134.411L-225.948 287.131L-276.439 594.934L-67.4285 826.037L243.694 806.415Z" stroke="#9C9CCA" stroke-width="0.570797"/>
<path d="M211.243 812.415L406.898 579.243L346.828 281.097L76.2673 142.488L-201.046 267.791L-276.291 562.65L-92.8044 805.031L211.243 812.415Z" stroke="#9C9CCA" stroke-width="1.14159"/>
<path d="M178.652 816.784L388.635 606.801L355.604 311.926L104.433 154.206L-175.742 252.408L-273.943 532.583L-116.223 783.754L178.652 816.784Z" stroke="#9C9CCA" stroke-width="1.71239"/>
<path d="M146.412 819.379L368.349 633.152L361.32 343.756L130.619 169.111L-150.033 240.729L-269.298 504.681L-137.367 762.204L146.412 819.379Z" stroke="#9C9CCA" stroke-width="2.28319"/>
<path d="M115.009 817.04L346.543 654.917L364.319 373.056L154.951 183.703L-123.903 229.445L-262.26 475.837L-155.934 737.342L115.009 817.04Z" stroke="#9C9CCA" stroke-width="2.85398"/>
<path d="M84.9274 812.78L323.74 674.902L364.983 402.473L177.6 200.639L-97.3071 221.384L-252.727 449.088L-171.625 712.284L84.9274 812.78Z" stroke="#9C9CCA" stroke-width="3.42478"/>
<path d="M56.6332 805.061L300.459 691.363L363.707 430.097L198.752 218.001L-70.1936 214.789L-240.607 422.878L-184.164 685.574L56.6332 805.061Z" stroke="#9C9CCA" stroke-width="3.99558"/>
<path d="M29.0604 796.98L275.702 707.21L359.388 458.664L217.103 238.503L-44.0113 212.512L-227.33 400.263L-194.81 660.376L29.0604 796.98Z" stroke="#9C9CCA" stroke-width="4.56637"/>
<path d="M2.65411 787.075L249.997 720.8L352.466 486.355L232.899 260.282L-18.6668 212.819L-212.798 379.706L-203.309 635.274L2.65411 787.075Z" stroke="#9C9CCA" stroke-width="5.13717"/>
<path d="M-22.1634 773.916L223.864 730.535L343.388 511.392L246.404 281.505L5.9438 213.985L-196.922 359.676L-209.431 608.868L-22.1634 773.916Z" stroke="#9C9CCA" stroke-width="5.70797"/>
<path d="M-44.9825 759.178L197.82 737.936L332.618 535.114L257.907 303.442L29.9457 217.373L-179.607 341.719L-212.953 582.845L-44.9825 759.178Z" stroke="#9C9CCA" stroke-width="6.27876"/>
<path d="M-65.7807 744.319H173.006L321.887 558.531L268.752 326.857L53.6123 223.753L-161.527 326.857L-214.662 558.531L-65.7807 744.319Z" stroke="#9C9CCA" stroke-width="6.84956"/>
</g>
</svg>
