<svg width="331" height="551" viewBox="0 0 331 551" fill="none" xmlns="http://www.w3.org/2000/svg">
<g opacity="0.25">
<path d="M0 275.078C0.178643 120.135 127.075 -2.11595 278.981 0.0277661C428.029 2.11193 551.709 124.006 549.982 278.115C548.315 431.927 421.24 554.536 266.654 549.891C117.726 545.425 0.0595477 423.412 0 275.078ZM320.426 312.236C309.946 312.891 299.822 313.665 289.699 314.023C279.576 314.38 269.453 314.32 259.151 314.439C258.794 327.48 258.437 340.343 258.02 353.562C280.053 354.455 301.609 353.562 323.403 351.24C322.57 337.961 321.676 325.039 320.426 312.236ZM258.675 356.063C258.496 356.242 258.377 356.242 258.377 356.301C258.258 356.54 258.08 356.718 258.08 356.956C257.96 360.291 257.782 363.685 257.782 367.02C257.722 375.654 257.663 384.289 257.603 392.983C257.603 393.042 257.663 393.102 257.722 393.161C257.782 393.221 257.841 393.281 258.139 393.519C280.41 394.174 302.859 393.578 325.428 390.958C324.892 378.394 324.475 366.067 323.522 353.562C301.668 356.063 280.112 356.718 258.675 356.063ZM196.924 307.055C195.793 310.212 191.624 341.772 191.743 345.642C198.591 348.501 249.445 354.455 255.459 353.026C255.995 349.811 256.71 315.511 256.234 313.963C236.345 313.07 216.515 310.747 196.924 307.055ZM254.923 393.4C255.043 388.993 255.162 384.884 255.221 380.835C255.281 376.607 255.4 372.439 255.34 368.211C255.281 364.162 255.817 360.053 255.519 356.182C244.503 355.17 233.903 354.455 223.304 353.205C212.704 351.954 202.105 350.228 191.505 348.739C190.493 352.133 188.111 381.907 188.587 385.658C210.382 389.946 232.355 392.447 254.923 393.4ZM322.986 311.641C323.999 324.801 324.952 337.723 325.964 350.942C347.044 348.501 367.528 344.749 387.834 339.033C385.928 325.992 383.785 313.308 381.045 300.505C361.752 305.686 342.637 309.318 322.986 311.641ZM327.869 390.839C349.783 388.338 371.16 384.348 392.062 378.513C392.181 371.605 388.965 344.213 387.715 341.653C367.588 347.131 347.103 350.883 326.083 353.443C326.678 365.948 327.274 378.215 327.869 390.839ZM326.023 428.116C325.904 416.385 326.142 405.071 325.309 393.519C302.621 396.139 280.172 396.556 257.722 396.02C256.948 399.116 256.889 428.414 257.663 430.498C280.35 431.272 303.098 430.617 326.023 428.116ZM259.211 311.581C279.755 312.534 299.882 311.641 320.247 309.437C318.997 295.861 317.806 282.641 316.138 269.302C311.97 269.66 308.159 270.136 304.289 270.374C290.533 271.267 276.777 271.863 263.022 271.267C262.307 271.208 261.593 271.327 260.7 271.386C260.223 284.904 259.687 298.123 259.211 311.581ZM203.713 264.717C201.39 278.234 199.127 291.156 196.805 304.435C216.753 308.366 236.523 310.628 256.769 311.522C257.246 297.945 257.782 284.666 258.258 271.089C239.858 270.195 221.875 268.171 203.713 264.717ZM254.685 430.081C254.685 418.648 254.685 407.334 254.685 395.841C232.295 394.888 210.263 392.328 188.409 388.159C187.575 391.435 186.741 419.005 187.277 422.28C194.364 425.079 246.527 431.212 254.685 430.081ZM194.066 306.698C184.717 304.316 175.546 302.232 166.495 299.672C157.444 297.111 148.512 294.015 139.52 291.156C137.555 295.98 131.005 324.979 131.064 328.493C137.496 332.423 181.978 345.166 189.064 345.047C190.731 332.363 192.398 319.56 194.066 306.698ZM130.35 331.172C128.087 343.499 126.241 355.527 125.169 367.675C144.939 375.238 164.947 380.895 185.729 385.063C186.741 372.558 187.754 360.291 188.766 347.846C168.877 343.856 149.584 338.437 130.35 331.172ZM371.28 259.179C362.288 261.144 353.713 263.228 345.079 264.896C336.385 266.563 327.572 267.814 318.699 269.243C320.009 282.522 321.379 295.682 322.689 308.782C329.894 309.378 373.126 301.16 380.45 297.707C377.83 284.844 374.793 271.982 371.28 259.179ZM392.24 381.311C381.462 383.693 370.863 386.313 360.204 388.338C349.545 390.363 338.767 391.792 328.167 393.519C328.167 395.96 328.167 398.163 328.167 400.426C328.227 408.465 328.346 416.564 328.465 424.603C328.465 425.555 328.584 426.508 328.703 427.759C350.914 425.258 372.53 421.149 393.61 415.313C394.205 411.383 393.134 385.48 392.24 381.311ZM201.331 264.479C192.875 262.335 184.598 260.489 176.44 258.167C168.222 255.844 160.183 253.046 152.025 250.426C150.06 254.058 140.711 284.368 140.354 288.477C157.861 295.146 175.904 300.208 194.483 303.959C196.745 290.68 199.008 277.698 201.331 264.479ZM444.464 317.774C441.665 305.15 438.33 292.943 434.341 280.557C417.786 288.596 400.934 294.789 383.546 299.791C385.869 312.772 388.072 325.456 390.335 338.378C409.152 333.018 427.076 326.408 444.464 317.774ZM394.86 377.739C414.392 372.201 433.031 365.234 450.835 356.421C451.073 351.597 446.25 323.669 444.583 320.454C427.254 328.909 409.211 335.519 390.692 340.879C392.121 353.205 393.491 365.293 394.86 377.739ZM185.55 387.564C164.947 383.396 144.82 377.739 124.991 370.295C124.812 371.546 124.574 372.439 124.514 373.332C124.038 382.8 123.561 392.268 123.085 401.736C122.966 404.356 123.025 404.356 125.586 405.309C141.545 411.323 157.861 416.028 174.475 419.898C177.75 420.672 181.025 421.268 184.479 421.982C184.836 410.43 185.193 399.116 185.55 387.564ZM257.305 432.939C256.65 439.251 257.067 461.582 257.901 463.725C280.291 464.321 302.74 463.904 325.071 461.284C325.964 457.413 326.321 433.177 325.487 430.617C302.919 432.939 280.231 433.773 257.305 432.939ZM310.601 227.023C310.065 227.023 309.469 226.964 308.933 227.023C304.408 227.381 299.882 227.917 295.356 228.036C285.174 228.333 275.051 228.393 264.868 228.572C264.153 228.572 263.439 228.691 262.605 228.75C262.01 242.149 261.414 255.309 260.819 268.35C268.024 270.017 311.494 268.409 315.662 266.444C315.781 263.169 311.494 229.227 310.601 227.023ZM419.692 240.779C404.745 248.103 389.382 253.641 373.781 258.226C376.937 271.446 379.974 284.308 383.07 297.409C400.518 292.407 417.31 286.273 433.626 278.175C429.517 265.432 424.932 253.105 419.692 240.779ZM213.181 222.974C211.335 227.559 204.546 259.834 204.844 262.454C222.41 265.849 240.215 267.873 258.377 268.647C258.973 255.13 259.568 241.91 260.223 228.393C244.205 227.619 228.603 225.832 213.181 222.974ZM187.992 455.686C210.322 459.974 232.355 462.594 254.626 463.487C254.626 453.126 254.626 443.062 254.626 432.88C248.79 432.522 243.193 432.225 237.595 431.808C231.998 431.331 226.4 430.796 220.803 430.141C215.146 429.485 209.489 428.652 203.832 427.878C198.294 427.163 192.875 425.853 186.92 425.198C187.277 435.559 187.575 445.504 187.992 455.686ZM313.399 226.547C315.067 240.005 316.734 253.224 318.401 266.563C336.146 264.479 353.415 261.323 370.327 256.559C369.91 252.153 360.382 220.592 358.715 217.853C343.947 221.902 328.941 224.642 313.399 226.547ZM128.266 327.719C131.183 314.856 134.042 302.411 136.84 290.084C129.04 286.512 121.299 283.236 113.796 279.485C106.233 275.674 98.9682 271.386 91.3461 267.218C86.88 278.949 83.069 290.859 79.8534 303.185C95.1572 313.129 111.295 321.109 128.266 327.719ZM392.181 448.66C393.193 443.301 394.146 421.089 393.431 417.933C372.173 423.709 350.497 427.759 328.465 430.319C328.286 440.68 328.167 450.684 327.988 460.986C349.902 458.485 371.161 454.436 392.181 448.66ZM451.431 359.279C442.022 363.209 432.971 367.258 423.622 370.771C414.213 374.285 404.626 377.322 394.98 380.537C395.456 391.732 395.932 402.987 396.409 414.36C397.123 414.182 397.6 414.122 398.076 414.003C416.476 408.703 434.341 401.974 451.609 393.638C452.919 392.983 453.455 392.209 453.396 390.72C452.979 383.157 452.681 375.654 452.264 368.092C452.205 365.234 451.788 362.316 451.431 359.279ZM201.926 261.502C204.725 248.461 207.524 235.539 210.382 222.379C195.674 219.401 181.442 215.352 167.388 210.112C162.029 222.617 157.146 235.003 152.799 247.567C159.647 251.378 194.244 261.204 201.926 261.502ZM127.73 330.339C122.192 327.897 116.594 325.634 111.116 323.074C105.638 320.513 100.219 317.774 94.919 314.916C89.6192 312.057 84.4981 308.961 79.1984 305.924C78.9007 306.877 78.6625 307.472 78.5434 308.127C76.5187 318.25 74.5537 328.374 72.529 338.497C72.1122 340.462 72.7672 341.534 74.4346 342.605C89.1428 351.895 104.566 359.577 120.703 366.008C121.239 366.246 121.775 366.365 122.549 366.603C124.276 354.396 126.003 342.427 127.73 330.339ZM137.555 287.464C141.545 274.542 145.475 261.918 149.405 249.175C135.054 243.518 121.358 236.73 108.317 228.333C102.362 240.243 97.0627 252.153 92.3584 264.538C106.59 273.828 121.656 281.212 137.555 287.464ZM401.589 202.073C394.741 204.931 388.31 207.849 381.7 210.35C375.091 212.851 368.302 214.995 361.633 217.258C365.444 230.12 369.255 242.804 373.007 255.487C379.319 255.07 412.606 242.446 418.62 238.218C413.499 226.011 407.842 213.982 401.589 202.073ZM123.323 407.096C123.204 407.989 123.085 408.406 123.145 408.822C123.621 417.457 124.097 426.091 124.514 434.726C124.633 436.989 125.586 438.179 127.789 439.013C144.284 445.087 161.136 449.91 178.226 453.781C180.548 454.317 182.93 454.734 185.431 455.21C185.074 444.849 184.776 434.785 184.419 424.543C163.696 420.315 143.391 414.658 123.323 407.096ZM446.965 316.345C447.501 316.166 447.977 315.988 448.394 315.809C462.507 308.544 475.786 300.088 488.053 290.084C489.243 289.132 489.422 288.298 489.005 286.869C485.73 276.15 481.979 265.67 477.691 255.368C477.453 254.832 477.155 254.415 476.679 253.641C464.293 263.883 450.835 272.28 436.842 279.425C440.236 291.871 443.57 304.019 446.965 316.345ZM458.338 216.126C447.024 225.535 434.876 233.038 422.133 239.588C426.778 252.153 431.363 264.419 436.067 276.984C450.359 269.779 463.638 261.323 475.845 251.081C470.605 238.993 464.889 227.5 458.338 216.126ZM72.0527 344.035C71.874 344.928 71.5763 345.642 71.5167 346.417C70.8617 355.885 70.2067 365.353 69.5517 374.821C69.4326 376.607 70.028 377.739 71.5763 378.691C86.5227 388.159 102.243 396.02 118.619 402.57C119.214 402.808 119.81 402.868 120.524 403.046C120.584 402.391 120.644 401.974 120.644 401.558C121.179 391.315 121.775 381.133 122.37 370.891C122.43 369.819 122.251 369.104 121.12 368.806C120.644 368.687 120.167 368.449 119.691 368.27C103.851 361.899 88.6069 354.396 74.1368 345.285C73.6009 344.868 72.8863 344.511 72.0527 344.035ZM447.501 319.025C449.585 331.172 451.609 342.963 453.634 354.753C453.872 354.753 454.11 354.753 454.229 354.694C455.361 354.158 456.492 353.562 457.624 353.026C471.26 345.821 484.182 337.544 496.091 327.778C497.282 326.825 497.878 325.932 497.58 324.205C495.913 314.023 493.71 303.899 490.911 293.955C490.732 293.24 490.434 292.585 490.077 291.573C476.798 302.411 462.566 311.343 447.501 319.025ZM164.947 209.1C152.442 204.157 140.652 198.262 129.278 190.997C122.013 202.549 115.463 214.102 109.449 226.13C122.49 234.586 136.007 241.315 150.239 246.853C155.122 234.229 160.005 221.783 164.947 209.1ZM325.249 463.725C302.562 466.286 280.172 466.703 257.841 466.167C257.186 469.621 257.663 489.51 258.496 492.13C261.891 492.249 265.285 492.487 268.739 492.546C286.424 492.785 304.05 491.951 321.617 490.165C323.522 489.986 323.701 489.807 323.82 487.604C324.297 480.577 324.773 473.551 325.249 466.465C325.309 465.631 325.249 464.916 325.249 463.725ZM262.784 225.654C268.322 227.262 306.909 225.713 310.481 223.808C308.814 211.184 306.909 198.5 304.765 185.876C304.169 185.816 303.812 185.757 303.514 185.757C302.681 185.757 301.847 185.816 301.013 185.876C289.878 186.888 278.743 187.424 267.548 187.007C266.773 186.948 265.94 187.067 264.927 187.127C264.153 200.108 263.498 212.792 262.784 225.654ZM395.158 447.528C395.575 447.588 395.754 447.648 395.932 447.588C398.612 446.814 401.232 446.04 403.912 445.206C419.394 440.383 434.519 434.487 449.108 427.52C450.716 426.746 451.55 425.853 451.669 423.948C452.205 415.551 452.86 407.215 453.455 398.818C453.515 397.925 453.455 397.032 453.455 395.96C443.928 399.89 434.757 403.999 425.349 407.572C415.881 411.145 406.175 414.182 396.468 417.457C396.051 427.342 395.575 437.346 395.158 447.528ZM260.045 225.832C260.878 221.366 262.486 188.734 261.95 186.769C249.147 186.174 236.345 184.566 223.482 182.244C222.232 186.71 221.041 190.878 219.909 195.106C218.778 199.334 217.647 203.562 216.634 207.79C215.622 211.958 214.193 216.067 213.717 220.533C229.258 223.451 244.562 225.356 260.045 225.832ZM255.281 491.891C255.698 489.39 255.043 467.953 254.447 465.988C232.414 465.095 210.441 462.475 188.349 458.366C188.885 467.417 189.897 475.933 191.267 484.269C199.782 487.068 246.825 492.666 255.281 491.891ZM345.138 178.194C338.469 179.624 332.276 181.112 326.023 182.303C319.83 183.494 313.518 184.447 307.266 185.459C309.231 198.441 311.136 211.184 313.102 224.046C328.584 222.26 343.471 219.52 358.536 215.293C353.951 202.728 349.604 190.521 345.138 178.194ZM421.181 237.325C433.983 230.834 446.012 223.331 457.088 213.982C450.359 202.371 443.213 191.235 435.234 180.338C425.349 188.496 414.809 194.987 403.852 200.703C409.747 212.97 415.404 225.058 421.181 237.325ZM392.121 451.22C370.684 457.056 349.485 460.986 327.869 463.487C327.274 472.241 326.738 480.756 326.202 489.331C326.976 489.331 327.512 489.39 327.988 489.331C334.301 488.438 340.613 487.604 346.925 486.592C360.204 484.508 373.304 481.59 386.286 478.076C387.715 477.719 388.37 477.064 388.608 475.575C389.501 469.621 390.573 463.666 391.466 457.652C391.764 455.746 391.883 453.781 392.121 451.22ZM168.46 207.67C176.737 211.72 206.988 220.116 211.037 219.52C214.312 207.075 217.587 194.57 220.922 181.827C208.893 179.266 197.162 175.991 185.55 171.704C179.358 183.613 173.701 195.404 168.46 207.67ZM55.9152 237.206C55.4984 237.98 55.0816 238.754 54.7243 239.588C50.3178 249.056 46.5067 258.703 43.1125 268.588C42.517 270.374 42.7552 271.506 43.9462 272.875C53.5333 283.594 64.4901 292.704 76.2805 300.803C76.6378 301.041 77.1142 301.22 77.531 301.398C81.4016 289.31 85.2127 277.46 89.0237 265.67C83.3667 261.263 77.4715 257.035 71.9931 252.391C66.4552 247.567 61.3341 242.387 55.9152 237.206ZM76.221 201.12C72.3504 205.586 58.5353 230.299 57.4635 234.467C63.5373 242.625 84.9745 261.025 90.1552 262.573C95.3953 250.723 100.636 238.814 105.995 226.785C95.1572 219.461 85.0936 211.065 76.221 201.12ZM455.956 391.077C456.492 391.077 456.671 391.077 456.79 391.018C457.207 390.839 457.564 390.72 457.921 390.482C472.332 382.979 486.028 374.285 498.652 364.043C500.26 362.733 500.974 361.422 500.796 359.338C500.26 351.895 499.843 344.392 499.307 336.948C499.128 334.507 498.652 332.065 498.295 329.267C497.461 329.803 496.925 330.1 496.508 330.458C483.884 340.64 470.248 349.156 455.897 356.599C453.694 357.731 453.753 357.731 453.932 360.053C454.468 367.02 455.004 373.928 455.48 380.895C455.718 384.289 455.837 387.624 455.956 391.077ZM380.152 164.796C369.434 170.036 358.477 173.966 347.401 177.361C351.927 189.985 356.393 202.252 360.859 214.697C374.436 210.826 387.536 206.003 400.339 199.691C394.086 187.722 387.477 176.289 380.152 164.796ZM69.7898 380.537C69.7898 383.038 69.6708 385.122 69.7898 387.207C70.3258 394.412 71.0404 401.558 71.5763 408.763C71.6954 410.49 72.529 411.562 74.0177 412.514C88.6069 421.744 103.97 429.426 119.929 435.857C120.524 436.095 121.179 436.274 121.954 436.572C121.954 435.559 122.013 434.726 121.954 433.952C121.596 428.116 121.179 422.221 120.882 416.385C120.703 413.527 120.584 410.668 120.584 407.81C120.584 406.5 120.167 405.726 118.917 405.369C118.5 405.25 118.143 405.071 117.726 404.892C101.767 398.521 86.4632 390.958 71.9336 381.847C71.4572 381.49 70.8022 381.133 69.7898 380.537ZM125.526 440.68C125.526 441.693 125.407 442.407 125.526 443.003C126.837 450.089 128.266 457.175 129.576 464.261C129.933 466.405 131.005 467.536 133.089 468.251C150.298 474.563 167.865 479.565 185.789 483.376C186.622 483.555 187.516 483.614 188.528 483.733C187.575 474.861 186.622 466.345 185.67 457.711C165.126 453.602 145.177 448.064 125.526 440.68ZM41.6238 273.887C41.3261 274.542 41.1474 274.84 41.0283 275.138C37.8723 285.202 35.4309 295.384 33.5849 305.686C33.2871 307.175 33.7635 308.187 34.7163 309.318C44.6012 320.454 55.9153 329.922 68.1821 338.318C68.718 338.675 69.2539 338.913 69.7898 339.152C72.1718 327.361 74.4941 315.809 76.876 304.078C63.9542 295.503 52.1042 285.618 41.6238 273.887ZM127.015 189.449C117.607 183.077 108.794 175.812 100.993 166.999C92.418 177.182 84.6768 187.662 77.531 198.56C82.2353 205.467 102.422 222.796 107.305 224.225C113.855 212.732 120.346 201.18 127.015 189.449ZM183.049 170.691C172.986 166.583 163.22 161.819 154.109 155.924C150.417 159.258 131.958 185.757 131.005 189.151C142.021 196.237 153.693 202.013 165.959 206.837C171.676 194.689 177.273 182.839 183.049 170.691ZM484.42 186.888C477.691 197.488 469.474 206.42 460.482 214.28C466.377 226.071 472.153 237.504 477.87 248.937C478.108 248.877 478.287 248.818 478.406 248.758C478.763 248.52 479.061 248.222 479.359 247.984C488.35 239.945 496.33 231.013 502.939 220.83C503.952 219.282 503.952 218.091 503.059 216.483C497.818 206.956 492.161 197.726 485.968 188.853C485.611 188.258 485.135 187.722 484.42 186.888ZM382.653 163.605C389.442 175.336 396.111 186.829 402.721 198.381C411.236 194.868 430.946 181.886 433.626 177.956C425.766 167.238 417.429 156.936 408.318 146.872C400.279 153.601 391.645 158.901 382.653 163.605ZM491.506 286.75C492.102 286.392 492.4 286.273 492.638 286.035C502.701 277.163 511.574 267.218 518.839 255.904C519.672 254.594 519.672 253.522 519.196 252.153C515.564 242.268 511.455 232.68 506.691 223.331C506.393 222.796 506.036 222.26 505.619 221.605C505.202 222.081 504.905 222.379 504.666 222.676C497.878 233.097 489.601 242.208 480.311 250.366C479.18 251.378 479.001 252.212 479.597 253.582C482.336 260.43 484.956 267.337 487.517 274.245C488.886 278.354 490.137 282.462 491.506 286.75ZM390.99 476.171C391.347 476.35 391.466 476.469 391.645 476.409C392.121 476.35 392.657 476.23 393.134 476.111C410.283 471.169 426.897 464.857 442.975 457.116C444.404 456.461 445.238 455.567 445.595 454.019C447.203 446.814 448.87 439.609 450.478 432.403C450.657 431.57 450.657 430.676 450.776 429.485C449.942 429.843 449.466 430.021 449.049 430.2C432.256 438.179 414.868 444.67 397.004 449.791C394.682 450.446 394.741 450.506 394.444 452.888C393.789 457.89 393.134 462.892 392.419 467.894C392.002 470.693 391.466 473.491 390.99 476.171ZM482.931 184.745C478.704 177.658 461.018 156.579 458.041 155.03C452.384 163.962 445.238 171.704 437.497 178.552C444.881 189.925 452.026 200.942 459.291 212.137C468.461 204.098 476.5 195.165 482.931 184.745ZM66.9911 375.476C67.1102 374.523 67.1698 373.928 67.1698 373.392C67.8248 364.102 68.4203 354.813 69.1944 345.523C69.4921 342.07 70.1471 342.725 66.872 340.521C54.9625 332.363 43.9462 323.193 34.2399 312.534C33.8826 312.117 33.4062 311.819 32.7512 311.343C32.513 312.474 32.2748 313.368 32.1557 314.261C31.0243 322.836 30.3693 331.47 30.012 340.104C29.8929 342.605 30.7266 344.332 32.3344 346.119C42.0406 356.778 52.9974 366.067 64.8474 374.225C65.4429 374.583 66.0383 374.88 66.9911 375.476ZM456.135 394.174C455.54 404.416 454.885 414.42 454.289 424.722C455.242 424.305 455.956 424.007 456.671 423.59C459.827 421.863 463.043 420.196 466.139 418.41C476.738 412.336 486.802 405.488 496.211 397.806C497.282 396.972 498.176 396.139 498.354 394.591C499.664 385.837 500.379 377.084 500.677 368.27C500.677 367.556 500.558 366.901 500.498 365.71C486.504 377.084 471.617 386.313 456.135 394.174ZM259.092 515.175C260.164 515.294 260.819 515.353 261.474 515.353C280.529 515.889 299.584 515.353 318.58 513.329C320.426 513.15 320.605 513.09 320.843 511.304C321.676 505.409 322.451 499.514 323.225 493.618C323.284 493.321 323.106 493.023 323.046 492.427C301.49 494.571 279.993 495.524 258.08 494.571C258.437 501.598 258.735 508.267 259.092 515.175ZM267.726 147.885C266.952 150.624 265.047 182.125 265.523 184.447C278.385 185.042 291.188 184.447 304.289 183.077C302.264 170.691 300.18 158.663 297.798 146.813C287.615 147.23 277.73 147.527 267.726 147.885ZM224.137 179.326C227.532 181.291 257.246 184.923 262.307 184.09C263.022 181.708 264.987 149.373 264.511 147.766C254.745 146.634 245.039 145.503 235.035 144.312C231.402 156.043 227.77 167.714 224.137 179.326ZM151.489 154.256C143.808 148.897 136.602 142.942 130.29 135.796C120.346 145.205 111.175 154.792 102.601 165.153C110.282 173.907 118.917 181.172 128.325 187.424C136.126 176.289 143.748 165.392 151.489 154.256ZM191.982 487.128C191.982 487.902 191.922 488.259 191.982 488.676C193.351 494.75 194.721 500.764 196.09 506.838C196.329 507.791 196.924 508.207 197.877 508.327C200.497 508.743 203.117 509.398 205.797 509.756C214.907 511.006 224.078 512.376 233.248 513.388C240.513 514.162 247.778 514.579 255.102 515.115C255.579 515.175 256.055 514.936 256.65 514.817C256.293 508.029 255.995 501.359 255.638 494.512C234.201 493.499 213.121 491.117 191.982 487.128ZM300.358 146.575C302.502 158.544 304.646 170.572 306.849 182.78C319.414 181.35 331.68 179.088 343.65 175.693C342.875 171.763 330.609 143.478 328.763 141.037C319.295 142.942 309.946 144.729 300.358 146.575ZM500.081 323.967C500.796 323.491 501.332 323.252 501.689 322.895C511.872 313.784 520.982 303.721 528.307 292.109C529.14 290.799 529.379 289.548 529.081 288.06C527.175 278.413 524.793 268.885 521.697 259.536C521.518 258.941 521.221 258.405 520.863 257.571C520.446 258.107 520.149 258.405 519.911 258.762C512.586 269.838 503.773 279.604 493.769 288.298C492.638 289.31 492.519 290.203 492.816 291.573C494.781 299.552 496.687 307.532 498.533 315.571C499.128 318.25 499.545 320.99 500.081 323.967ZM205.975 136.154C202.462 140.501 187.694 166.702 187.158 169.619C198.353 173.847 209.846 177.063 221.636 179.326C225.388 167.297 229.02 155.507 232.712 143.835C223.721 141.275 214.967 138.774 205.975 136.154ZM325.904 492.07C325.011 499.156 324.118 505.826 323.225 512.614C323.999 512.614 324.416 512.674 324.773 512.614C331.085 511.721 337.397 510.828 343.709 509.815C355.619 507.91 367.409 505.23 379.08 502.134C380.509 501.776 381.403 501.062 381.82 499.573C383.487 493.797 385.273 488.021 387 482.185C387.179 481.649 387.119 481.113 387.179 480.28C366.933 485.877 346.627 489.629 325.904 492.07ZM331.561 140.382C336.504 151.815 341.446 163.307 346.389 174.8C352.641 173.966 375.567 165.153 378.604 162.355C371.637 151.517 364.253 140.918 356.452 130.854C348.056 134.07 339.838 137.166 331.561 140.382ZM57.2253 170.155C56.5703 170.87 56.0939 171.287 55.6771 171.823C49.2459 180.219 43.3507 188.972 37.9319 198.083C37.0386 199.572 37.0386 200.763 37.6341 202.311C41.6238 212.672 47.2213 222.081 54.1884 230.715C54.5457 231.132 54.9625 231.43 55.3198 231.728C61.6318 220.652 67.8248 209.755 74.1368 198.619C67.1698 190.223 61.3341 180.874 57.2253 170.155ZM410.462 145.086C419.096 155.745 427.493 166.047 435.889 176.348C441.486 172.537 453.694 158.782 456.433 152.529C447.441 143.002 437.854 134.01 427.493 125.435C422.669 132.998 416.953 139.429 410.462 145.086ZM127.372 465.869C127.134 464.738 126.956 463.845 126.837 462.951C125.586 456.103 124.216 449.255 123.145 442.407C122.847 440.264 122.013 439.251 120.048 438.477C104.327 432.284 89.2024 424.841 74.8514 415.849C74.3155 415.492 73.72 415.254 72.8268 414.718C72.9459 415.909 72.8863 416.742 73.1245 417.516C74.9705 424.781 76.8165 431.987 78.6625 439.192C79.0793 440.859 80.0321 441.931 81.5207 442.824C95.4549 451.697 110.163 459.021 125.407 465.274C125.884 465.452 126.479 465.571 127.372 465.869ZM84.2004 140.143C83.6049 140.679 82.9499 141.215 82.414 141.751C74.6132 149.314 67.3484 157.353 60.4409 165.749C59.369 167.059 59.0713 168.131 59.7263 169.798C63.3587 179.147 68.4203 187.603 74.6728 195.404C74.9705 195.761 75.3873 196.059 75.6851 196.356C83.4858 185.876 91.2866 175.455 99.0278 165.034C96.4077 161.164 93.4898 157.353 91.0484 153.244C88.5474 149.076 86.5228 144.669 84.2004 140.143ZM184.24 168.488C190.731 157.174 197.043 146.098 203.296 135.141C195.912 131.39 188.587 127.638 181.084 123.827C172.152 133.295 163.577 143.24 155.36 153.839C164.59 159.794 174.117 164.498 184.24 168.488ZM39.9565 268.409C40.1947 268.29 40.4329 268.171 40.671 268.052C40.9092 267.456 41.207 266.801 41.3856 266.206C44.7798 256.261 48.71 246.555 53.2952 237.087C54.1884 235.241 53.8906 234.11 52.6997 232.621C45.8517 224.225 40.2542 215.114 36.205 205.05C36.0263 204.574 35.669 204.098 35.2522 203.264C34.6567 204.276 34.1804 204.931 33.7635 205.646C29.2379 213.982 25.3078 222.617 21.7349 231.43C20.9012 233.455 20.9608 235.181 21.7349 237.206C25.9628 248.044 31.858 257.869 39.0037 266.98C39.361 267.397 39.6587 267.933 39.9565 268.409ZM131.422 470.216C131.719 471.467 131.779 472.241 132.077 472.896C134.161 478.493 136.305 484.031 138.389 489.629C138.984 491.236 140.056 492.13 141.723 492.725C158.039 498.859 174.772 503.503 191.743 507.136C192.279 507.255 192.875 507.195 193.589 507.255C192.041 500.228 190.552 493.38 189.004 486.532C169.413 482.602 150.417 477.302 131.422 470.216ZM406.71 145.086C397.6 135.082 388.191 125.673 378.425 116.92C371.756 121.267 365.325 125.435 358.953 129.544C366.337 140.084 373.721 150.624 381.284 161.461C390.216 157.055 398.672 151.696 406.71 145.086ZM530.093 294.193C529.319 295.206 528.902 295.622 528.604 296.099C521.28 306.996 512.586 316.583 502.701 325.158C500.974 326.647 500.617 328.076 500.855 330.16C501.629 337.306 502.225 344.511 502.88 351.716C503.118 354.277 503.178 356.837 503.356 359.696C503.952 359.338 504.369 359.16 504.666 358.922C515.206 349.513 524.496 339.092 531.939 327.064C532.475 326.17 532.773 324.979 532.713 323.967C532.237 316.166 531.701 308.366 531.105 300.624C530.927 298.659 530.451 296.694 530.093 294.193ZM116.416 113.228C115.582 113.764 114.987 114.121 114.451 114.478C105.221 121.267 96.4077 128.532 88.071 136.332C86.3441 137.94 86.3441 137.94 87.2373 140.203C90.2742 148.004 94.5617 155.09 99.7423 161.7C100.1 162.176 100.338 162.712 100.576 163.129C110.044 153.125 119.155 143.478 128.504 133.653C123.502 127.579 119.393 120.85 116.416 113.228ZM30.2502 347.607C30.1907 348.917 30.1311 349.751 30.1907 350.644C30.6075 358.802 31.2625 366.901 32.5726 374.94C32.8703 376.667 33.4658 378.096 34.6567 379.406C44.3035 390.244 55.2602 399.593 67.2293 407.87C67.7652 408.227 68.3607 408.465 69.1348 408.882C69.0753 407.81 69.0753 407.036 68.9562 406.321C67.8248 398.044 67.3484 389.767 67.2293 381.49C67.2293 379.525 66.6338 378.334 64.9665 377.203C52.9379 369.104 41.862 359.934 31.9771 349.275C31.5603 348.739 31.1434 348.382 30.2502 347.607ZM162.744 108.405C152.204 116.324 141.962 124.84 132.315 133.95C135.59 138.833 148.512 149.969 153.276 152.112C161.851 142.108 170.366 132.164 178.822 122.279C173.522 117.753 168.282 113.228 162.744 108.405ZM459.827 152.053C468.164 162.117 476.322 171.942 484.48 181.827C484.837 181.291 485.194 180.814 485.432 180.338C489.72 172.537 492.697 164.26 494.246 155.507C494.543 153.958 494.841 152.529 493.531 151.041C486.326 142.942 478.704 135.201 470.605 127.996C470.188 127.638 469.712 127.4 468.997 126.983C467.39 136.094 464.293 144.371 459.827 152.053ZM448.275 454.257C448.989 454.019 449.406 453.84 449.883 453.662C463.638 446.516 476.619 438.239 488.529 428.295C489.422 427.52 490.256 426.389 490.613 425.258C492.34 419.898 493.948 414.539 495.496 409.12C496.27 406.381 496.746 403.642 497.342 400.843C497.163 400.724 497.044 400.605 496.866 400.545C496.211 401.022 495.615 401.498 494.96 401.974C491.744 404.356 488.529 406.857 485.254 409.18C475.845 415.849 465.96 421.685 455.659 426.865C454.17 427.58 453.455 428.473 453.158 430.2C451.728 437.584 450.061 444.968 448.513 452.352C448.394 452.888 448.334 453.483 448.275 454.257ZM505.619 216.007C506.215 215.173 506.572 214.757 506.87 214.28C511.872 205.05 515.325 195.285 516.993 184.923C517.171 183.792 516.874 182.839 516.278 181.827C510.8 173.073 504.785 164.677 498.235 156.698C497.878 156.281 497.461 155.983 496.866 155.566C496.627 156.281 496.449 156.757 496.389 157.234C494.662 166.285 491.387 174.8 486.862 182.78C486.087 184.09 486.266 184.983 487.1 186.174C493.055 194.63 498.592 203.323 503.595 212.375C504.19 213.447 504.785 214.518 505.619 216.007ZM443.57 459.617C442.32 460.153 441.486 460.51 440.712 460.867C436.246 462.832 431.84 464.857 427.373 466.762C416 471.526 404.329 475.516 392.479 478.85C390.93 479.267 390.156 479.982 389.739 481.59C388.31 487.187 386.583 492.725 384.976 498.263C384.797 498.859 384.678 499.514 384.44 500.407C385.333 500.228 385.988 500.169 386.583 499.99C402.363 495.286 417.727 489.51 432.614 482.364C433.864 481.768 434.817 480.935 435.412 479.625C437.973 473.789 440.534 467.953 443.035 462.118C443.154 461.522 443.273 460.808 443.57 459.617ZM31.0839 304.852C31.3816 303.899 31.5603 303.304 31.6794 302.768C33.4658 292.824 35.9668 283.117 39.0037 273.471C39.4801 271.982 39.1824 270.97 38.2296 269.838C30.7861 260.787 24.6527 250.842 20.1867 240.005C20.008 239.528 19.6507 239.112 19.2339 238.397C18.8171 239.409 18.5789 240.124 18.3407 240.838C15.4228 249.354 13.1005 257.988 11.2545 266.801C10.8972 268.647 11.0163 270.195 11.6713 271.922C15.9588 283.415 22.1517 293.836 29.7738 303.483C30.0716 303.78 30.4289 304.138 31.0839 304.852ZM425.587 123.887C415.107 115.252 404.388 107.452 393.372 100.425C388.906 105.546 384.678 110.37 380.51 115.133C389.858 124.423 399.267 133.831 408.854 143.299C415.226 137.642 420.942 131.449 425.587 123.887ZM457.862 149.969C457.921 149.969 458.1 149.909 458.16 149.79C458.338 149.611 458.457 149.373 458.576 149.195C462.507 142.108 465.186 134.546 466.556 126.507C466.794 125.078 466.258 124.185 465.186 123.291C456.611 116.086 447.679 109.417 438.33 103.283C437.794 102.926 437.199 102.747 436.365 102.331C434.996 109.893 432.316 116.741 428.862 122.934C438.807 132.164 448.334 141.037 457.862 149.969ZM519.255 187.007C518.958 187.96 518.839 188.317 518.779 188.734C516.755 198.857 513.063 208.385 507.882 217.317C507.227 218.389 507.346 219.282 507.882 220.354C512.765 229.763 517.052 239.409 520.744 249.354C520.923 249.83 521.28 250.247 521.637 250.842C521.935 250.485 522.173 250.307 522.292 250.128C527.83 240.183 531.641 229.703 533.368 218.449C533.607 216.9 533.368 215.471 532.773 214.042C529.26 205.586 525.329 197.309 520.804 189.33C520.387 188.734 519.97 188.139 519.255 187.007ZM319.95 515.77C312.923 516.306 306.194 516.842 299.525 517.199C292.915 517.557 286.246 517.795 279.636 517.914C272.966 518.033 266.238 517.914 259.39 517.914C259.628 522.797 259.925 527.56 260.759 532.265C261.295 532.384 261.593 532.443 261.95 532.443C277.194 532.801 292.379 532.622 307.564 531.312C310.065 531.074 312.566 530.776 315.067 530.538C315.9 530.478 316.496 530.181 316.734 529.287C318.044 525 319.235 520.593 319.95 515.77ZM118.619 111.501C120.346 117.932 127.372 129.603 130.528 131.747C140.771 123.172 150.953 114.597 160.957 106.261C157.92 101.14 154.943 96.0186 151.847 90.7784C140.354 96.9714 129.338 103.879 118.619 111.501ZM270.168 111.68C269.334 122.815 268.441 133.831 267.607 145.086C277.671 145.443 287.377 145.265 297.262 144.074C295.059 132.76 292.796 121.803 290.176 110.906C283.506 111.144 277.075 111.382 270.168 111.68ZM267.786 111.501C261.176 110.727 254.685 109.953 248.195 109.179C243.907 119.838 239.977 130.497 236.226 141.573C245.932 143.538 255.459 144.55 265.225 144.967C266.059 133.653 266.893 122.636 267.786 111.501ZM327.81 138.476C322.57 127.519 317.389 117.158 311.613 107.035C305.301 108.226 299.167 109.417 292.796 110.667C295.118 121.684 297.441 132.64 299.763 143.776C309.29 142.823 318.401 141.037 327.81 138.476ZM197.46 510.768C198.83 515.532 200.616 519.522 202.343 523.511C203.177 525.357 204.308 526.191 206.273 526.489C214.491 527.68 222.708 529.168 230.926 530.121C239.501 531.133 248.135 531.669 256.769 532.384C257.127 532.443 257.544 532.205 258.08 532.086C257.663 527.322 257.246 522.678 256.829 517.735C236.94 516.663 217.349 514.52 197.46 510.768ZM207.345 133.653C216.218 136.928 224.792 139.429 233.605 141.096C237.655 130.139 241.585 119.48 245.575 108.702C239.739 106.975 233.963 105.308 228.008 103.581C220.743 113.168 213.955 123.113 207.345 133.653ZM80.2702 112.216C79.7343 112.275 79.5557 112.216 79.4366 112.275C78.9602 112.573 78.4838 112.93 78.0074 113.287C70.6831 119.302 63.7755 125.792 57.1062 132.64C55.558 134.248 54.9625 135.916 54.8434 138C54.5456 144.133 54.7243 150.267 55.9152 156.281C56.4512 158.96 57.1658 161.581 57.7612 164.26C58.059 164.379 58.2972 164.498 58.5949 164.617C58.8926 164.082 59.0713 163.546 59.4286 163.069C66.5147 154.435 74.0773 146.217 82.1758 138.476C83.3072 137.404 83.3072 136.451 82.9499 135.141C80.9848 128.413 80.0321 121.565 80.2107 114.538C80.2702 113.883 80.2702 113.109 80.2702 112.216ZM135.709 490.165C135.411 489.212 135.233 488.616 134.995 488.021C133.029 482.423 130.945 476.826 129.04 471.169C128.504 469.561 127.67 468.727 126.122 468.132C111.116 462.177 96.6458 455.151 82.9499 446.635C82.4735 446.337 81.9971 446.218 81.1039 445.802C81.5207 446.992 81.6994 447.767 81.9971 448.481C84.7363 454.138 87.535 459.795 90.2742 465.452C91.0484 467.001 92.2393 468.072 93.6685 469.025C106.233 477.064 119.453 483.733 133.208 489.39C133.982 489.688 134.697 489.867 135.709 490.165ZM330.43 100.008C324.773 102.212 319.473 104.236 314.233 106.261C319.592 116.741 324.892 127.102 330.37 137.702C338.647 135.439 346.627 132.402 354.725 128.532C346.925 118.468 338.886 109.06 330.43 100.008ZM532.594 331.708C532.416 331.649 532.296 331.649 532.118 331.589C531.88 331.827 531.641 332.065 531.463 332.304C523.841 343.499 514.73 353.384 504.547 362.197C503.594 363.03 503.237 363.983 503.178 365.234C502.761 372.439 502.284 379.644 501.808 386.849C501.689 388.814 501.391 390.78 501.213 392.745C501.689 392.685 501.868 392.745 501.987 392.685C502.404 392.387 502.82 392.09 503.178 391.732C512.646 383.098 521.102 373.511 528.069 362.673C529.26 360.767 530.034 358.802 530.272 356.599C531.046 349.334 531.88 342.07 532.594 334.805C532.713 333.852 532.594 332.78 532.594 331.708ZM113.021 89.7065C112.247 90.0043 111.89 90.0638 111.652 90.1829C102.065 95.6613 92.9539 101.795 84.2004 108.464C83.3667 109.06 83.069 109.834 82.9499 110.786C82.1758 117.575 82.8903 124.185 84.3195 130.794C84.6172 132.164 85.034 133.474 85.4509 134.903C95.574 126.626 105.459 118.468 115.463 110.25C113.379 103.819 112.605 96.9714 113.021 89.7065ZM426.897 121.267C429.755 117.218 432.911 108.821 433.924 102.747C434.281 100.544 434.281 100.544 432.376 99.3533C422.788 93.339 412.844 87.9201 402.602 83.0372C401.887 82.6799 401.113 82.3822 400.518 82.144C398.552 87.5628 396.647 92.803 394.801 97.8646C405.341 105.665 416.059 113.407 426.897 121.267ZM322.748 515.294C321.617 520.177 320.485 524.94 319.295 529.823C320.247 529.823 321.021 529.883 321.736 529.823C324.832 529.406 327.869 528.93 330.966 528.513C344.007 526.608 356.869 523.928 369.612 520.474C370.922 520.117 371.935 519.522 372.53 518.39C374.674 514.4 376.877 510.47 379.021 506.481C379.259 506.004 379.319 505.468 379.557 504.575C360.799 509.577 342.042 513.031 322.748 515.294ZM225.388 102.628C221.22 100.425 217.17 98.4005 213.181 96.2568C211.156 95.1849 211.156 95.0658 209.489 96.5545C201.212 104.355 192.994 112.156 184.776 119.957C184.24 120.433 183.824 121.088 183.228 121.803C190.195 126.269 197.341 129.782 204.725 132.7C211.751 122.458 218.54 112.573 225.388 102.628ZM26.9751 340.045C27.2133 339.866 27.3919 339.688 27.6301 339.509C27.6897 339.271 27.7492 339.033 27.7492 338.794C27.9874 329.267 28.8806 319.858 30.3693 310.45C30.6075 308.842 30.2502 307.77 29.2379 306.579C21.7944 297.528 15.5419 287.643 11.0163 276.805C10.8377 276.329 10.4804 275.853 10.004 275.078C9.76581 275.912 9.52762 276.329 9.46807 276.805C8.27712 285.321 7.44346 293.836 7.44346 302.411C7.44346 303.959 7.74119 305.567 8.27712 307.055C12.3859 318.548 18.6384 328.909 26.0819 338.497C26.4392 338.973 26.6773 339.509 26.9751 340.045ZM35.7881 196.416C36.2645 195.999 36.5027 195.88 36.6218 195.642C42.2788 186.174 48.4718 177.122 55.2602 168.429C55.9748 167.535 56.0343 166.702 55.7366 165.63C53.1761 157.353 52.0446 148.956 52.3424 140.262C52.3424 139.786 52.1637 139.25 52.0446 138.476C51.5087 139.012 51.1514 139.25 50.9132 139.548C44.6012 146.753 38.8251 154.375 33.6444 162.474C32.9894 163.486 32.7512 164.796 32.5726 165.987C31.858 172.299 32.1557 178.552 33.1085 184.804C33.704 188.675 34.4185 192.486 35.7881 196.416ZM345.495 90.5402C341.208 93.339 337.099 96.0781 332.99 98.7578C341.029 108.226 349.068 117.694 357.226 127.341C363.896 123.946 370.208 120.016 376.222 115.074C366.159 106.082 355.976 97.9837 345.495 90.5402ZM34.2399 382.919C34.359 383.812 34.4185 384.289 34.5376 384.765C36.205 392.566 38.5273 400.188 41.4452 407.632C41.8024 408.644 42.4575 409.537 43.172 410.371C52.2828 420.851 62.7037 429.783 74.0773 437.703C74.4941 438.001 75.03 438.179 75.8637 438.537C75.5064 437.167 75.2087 436.214 74.9705 435.262C73.3627 428.473 71.6954 421.744 70.2662 414.896C69.9089 413.169 69.2539 412.038 67.8248 411.085C56.2725 403.285 45.6135 394.531 36.0263 384.348C35.5499 383.991 35.0736 383.634 34.2399 382.919ZM531.344 286.571C531.999 285.559 532.356 285.082 532.654 284.606C537.537 275.436 541.109 265.789 542.896 255.547C543.313 253.224 543.73 250.902 543.253 248.58C541.526 240.362 539.323 232.264 536.584 224.344C536.346 223.57 535.988 222.855 535.453 221.664C535.155 222.617 534.976 223.093 534.857 223.57C532.654 234.11 528.724 243.935 523.305 253.224C522.65 254.296 522.769 255.189 523.126 256.321C525.032 262.752 526.997 269.183 528.783 275.614C529.736 279.009 530.391 282.522 531.344 286.571ZM180.727 120.195C190.195 111.203 199.425 102.45 208.655 93.6367C205.32 90.7188 201.926 87.801 198.413 84.7045C186.98 91.3739 175.904 98.5791 165.126 106.678C169.83 111.977 175.07 116.324 180.727 120.195ZM149.048 72.3782C148.81 72.4377 148.512 72.4973 148.214 72.6164C137.436 76.7847 127.075 81.6676 116.952 87.146C115.761 87.801 115.403 88.6942 115.344 90.0043C115.046 95.6613 115.522 101.259 116.952 106.737C117.13 107.452 117.428 108.107 117.666 108.702C128.921 101.735 140.056 94.8276 151.013 88.0392C150.358 82.9181 149.703 77.6779 149.048 72.3782ZM142.021 495.464C141.902 495.583 141.723 495.702 141.604 495.822C141.962 496.536 142.259 497.31 142.676 497.965C145.177 501.717 147.738 505.468 150.239 509.22C151.132 510.53 152.323 511.244 153.812 511.84C168.163 517.259 182.93 521.427 197.936 524.702C198.591 524.821 199.306 524.762 200.021 524.821C198.353 520.415 196.686 516.425 195.257 512.257C194.721 510.589 193.768 509.875 192.16 509.577C177.214 506.54 162.446 502.55 148.035 497.548C146.13 496.893 144.046 496.179 142.021 495.464ZM466.913 121.267C467.092 120.79 467.211 120.612 467.211 120.433C467.866 112.573 466.794 104.891 464.531 97.3286C464.174 96.1972 463.459 95.4827 462.566 94.8276C454.527 89.1706 446.131 84.0495 437.437 79.5239C436.901 79.2262 436.246 79.0475 435.651 78.8093C435.532 79.107 435.412 79.2857 435.472 79.4643C435.591 80.1194 435.71 80.7744 435.829 81.4294C437.08 86.6696 437.497 92.0289 437.08 97.4477C436.961 98.9364 437.437 99.7106 438.628 100.485C447.917 106.439 456.73 112.99 465.186 120.016C465.663 120.433 466.199 120.79 466.913 121.267ZM390.811 98.8173C379.378 91.493 367.707 85.0023 355.738 79.2261C352.879 82.5608 350.2 85.6573 347.58 88.6347C357.762 96.7927 367.945 104.891 378.306 113.168C383.07 109.119 387.298 104.474 390.811 98.8173ZM467.628 98.8173C467.866 100.068 467.925 100.842 468.104 101.676C469.533 108.047 470.248 114.419 469.533 120.91C469.295 122.994 470.01 124.304 471.558 125.614C479.18 132.224 486.326 139.31 492.995 146.872C493.471 147.408 493.829 148.123 494.305 148.897C494.841 148.123 495.079 147.944 495.139 147.706C495.258 147.051 495.317 146.396 495.317 145.681C495.556 137.404 494.543 129.246 491.983 121.386C491.566 120.195 490.851 118.944 489.958 118.051C483.706 111.62 476.917 105.725 469.771 100.187C469.236 99.7701 468.58 99.4128 467.628 98.8173ZM487.636 432.403C486.623 433.058 486.087 433.416 485.552 433.773C482.991 435.678 480.43 437.584 477.87 439.43C468.759 445.921 459.172 451.637 449.168 456.639C447.501 457.473 446.726 458.604 446.071 460.272C443.928 465.929 441.546 471.467 439.283 477.064C439.045 477.6 438.926 478.195 438.628 479.089C439.402 478.791 439.7 478.672 439.998 478.493C452.443 471.943 464.233 464.38 475.012 455.329C475.964 454.555 476.858 453.543 477.453 452.471C480.609 446.635 483.706 440.74 486.742 434.904C487.04 434.368 487.219 433.654 487.636 432.403ZM190.91 72.6759C178.405 77.4993 166.317 82.9776 154.645 89.2302C155.836 94.0535 160.66 102.092 163.458 104.296C174.534 96.9714 185.61 89.7065 196.626 82.4417C194.78 79.3452 192.934 76.1297 190.91 72.6759ZM434.4 97.6264C434.579 96.7927 434.698 96.4354 434.698 96.0186C434.996 89.9447 434.162 83.99 432.435 78.1543C432.078 77.0229 431.423 76.5465 430.47 76.0701C420.883 71.4254 410.998 67.4357 400.875 64.101C400.398 63.9224 399.803 63.9224 399.148 63.8033C399.267 64.637 399.267 65.2325 399.446 65.7684C400.339 69.4008 400.637 73.0927 400.339 76.7847C400.16 78.8689 400.934 79.7025 402.721 80.5362C412.844 85.2405 422.61 90.5402 432.137 96.4354C432.792 96.8523 433.507 97.15 434.4 97.6264ZM29.6547 169.203C29.0593 169.977 28.8211 170.215 28.6424 170.513C24.1763 178.135 20.2462 185.995 16.9115 194.213C16.6138 194.927 16.4352 195.642 16.3161 196.416C15.0656 207.254 15.9588 217.853 18.8171 228.333C18.9362 228.75 19.2339 229.108 19.5912 229.763C20.008 228.929 20.3057 228.453 20.4844 227.917C24.1168 218.865 28.3447 210.112 33.168 201.597C33.8826 200.287 33.9422 199.155 33.5253 197.786C30.8457 189.33 29.6547 180.636 29.7143 171.704C29.8334 171.108 29.7738 170.453 29.6547 169.203ZM392.3 96.3759C394.682 92.4457 396.23 88.1583 397.242 83.5731C397.838 80.8935 397.838 80.8935 395.396 79.7621C384.737 74.9983 373.84 70.8895 362.705 67.3166C362.05 67.0784 361.276 67.0189 360.68 66.8998C359.43 70.4131 358.239 73.6882 357.167 76.7847C368.898 83.3349 380.509 89.7661 392.3 96.3759ZM375.627 518.509C376.52 518.331 377.175 518.271 377.83 518.092C391.645 513.924 405.162 508.863 418.084 502.431C419.037 501.955 420.049 501.359 420.704 500.526C424.098 496.238 427.374 491.891 430.649 487.544C430.946 487.128 431.065 486.592 431.423 485.818C430.708 485.996 430.41 486.056 430.113 486.175C415.345 493.023 400.101 498.62 384.38 503.086C383.308 503.384 382.713 504.039 382.236 504.992C380.271 509.041 378.187 513.09 376.163 517.14C375.984 517.497 375.865 517.914 375.627 518.509ZM119.691 66.4234C118.678 66.7807 118.202 66.8998 117.785 67.138C109.627 70.8895 101.767 75.2365 94.2639 80.2385C93.3707 80.8339 92.5966 81.6676 92.1202 82.5608C89.0833 87.801 86.7014 93.339 85.0936 99.2342C84.5577 101.14 84.2004 103.105 83.6049 105.427C84.379 105.07 84.7959 104.951 85.0936 104.772C93.728 98.341 102.72 92.5053 112.069 87.146C113.021 86.6101 113.438 85.8955 113.617 84.7641C114.57 79.107 116.356 73.6882 118.798 68.5076C119.036 68.0312 119.214 67.4357 119.691 66.4234ZM153.573 86.6101C166.019 80.953 178.047 75.4746 190.076 69.9963C189.719 66.7807 189.302 63.5056 188.885 60.0518C188.111 60.1709 187.456 60.29 186.801 60.4686C182.037 61.7191 177.214 62.8505 172.45 64.2797C166.257 66.1852 160.183 68.3289 154.05 70.294C152.502 70.7704 151.847 71.6636 151.966 73.2118C152.204 76.3083 152.263 79.4048 152.561 82.5013C152.799 83.8709 153.276 85.2405 153.573 86.6101ZM517.29 178.611C517.529 177.956 517.588 177.837 517.648 177.658C518.243 167.476 516.933 157.531 513.658 147.885C513.36 146.932 512.824 146.039 512.229 145.265C507.822 138.714 502.999 132.462 497.818 126.507C497.282 125.912 496.687 125.376 496.151 124.84C495.853 125.733 495.913 126.447 496.032 127.162C497.58 134.665 498.295 142.287 497.342 149.909C497.163 151.338 497.699 152.291 498.533 153.303C504.666 160.628 510.383 168.309 515.623 176.348C516.099 177.003 516.576 177.658 517.29 178.611ZM154.764 54.097C153.931 54.2161 153.514 54.2757 153.097 54.3948C143.688 56.8958 134.459 59.9923 125.467 63.7438C124.216 64.2797 123.383 65.0538 122.728 66.1852C119.989 71.2468 117.845 76.487 116.594 82.0844C116.416 82.799 116.416 83.5136 116.297 84.5259C117.071 84.2877 117.547 84.1686 117.964 83.9304C127.849 78.6902 137.972 73.986 148.393 69.9963C149.703 69.4603 150.12 68.6267 150.358 67.3762C150.953 63.6247 152.204 60.0518 153.752 56.598C153.99 55.8835 154.288 55.1689 154.764 54.097ZM527.711 367.973C526.937 368.866 526.58 369.283 526.282 369.759C519.255 379.585 511.038 388.279 501.927 396.198C500.855 397.151 500.319 398.223 499.962 399.533C498.235 406.679 496.449 413.884 494.662 421.03C494.543 421.566 494.424 422.102 494.186 423.054C494.96 422.518 495.496 422.221 495.853 421.863C504.726 413.646 512.527 404.595 518.958 394.352C519.672 393.221 520.387 392.03 520.804 390.78C523.067 383.932 525.21 377.084 527.414 370.176C527.592 369.64 527.533 369.104 527.711 367.973ZM8.09848 313.963C7.97939 313.963 7.86029 313.963 7.74119 313.963C7.74119 314.439 7.68165 314.916 7.74119 315.392C8.15803 320.156 8.45576 324.92 9.11079 329.684C9.64672 333.495 10.1826 337.365 11.3736 340.998C15.1251 352.133 21.0799 362.197 28.166 371.546C28.4638 371.962 28.9402 372.26 29.5952 372.856C29.5952 372.082 29.6547 371.665 29.5952 371.248C28.4042 363.09 27.7492 354.872 27.7492 346.655C27.7492 345.047 27.2133 343.856 26.2605 342.546C22.6281 337.603 18.9362 332.721 15.6015 327.599C12.8623 323.193 10.5995 318.489 8.09848 313.963ZM360.144 53.9779C360.501 57.6699 360.74 60.8855 361.037 63.8629C373.364 68.5076 385.571 73.1523 397.897 77.797C398.374 73.3309 397.719 69.1031 396.766 64.8156C396.409 63.0887 395.516 62.2551 393.848 61.8382C385.392 59.8136 376.937 57.6103 368.481 55.5857C365.801 54.9307 363.122 54.5734 360.144 53.9779ZM535.214 320.513C535.572 320.335 535.75 320.335 535.81 320.216C536.167 319.62 536.524 319.084 536.822 318.489C539.621 313.01 541.943 307.353 543.67 301.458C545.278 295.92 546.826 290.323 546.886 284.487C547.005 277.282 546.409 270.076 545.516 262.931C545.397 261.978 545.278 261.085 545.159 260.132C544.504 260.489 544.325 260.787 544.206 261.144C541.884 271.089 537.953 280.438 532.832 289.251C532.177 290.323 532.058 291.335 532.237 292.585C533.13 299.552 533.904 306.579 534.619 313.546C534.917 315.809 535.036 318.131 535.214 320.513ZM262.307 542.924C263.022 543.043 263.439 543.102 263.856 543.162C273.919 543.877 283.983 543.341 294.046 542.924C298.572 542.745 303.098 542.031 307.623 541.971C310.958 541.911 312.625 540.244 313.697 537.445C314.173 536.076 315.126 534.885 315.126 533.158C314.412 533.218 313.935 533.217 313.459 533.217C304.586 533.753 295.714 534.528 286.841 534.825C279.219 535.123 271.537 534.885 263.915 534.885C263.022 534.885 262.188 534.944 260.997 535.004C261.414 537.862 261.831 540.304 262.307 542.924ZM390.692 45.939C390.633 46.1177 390.514 46.2963 390.454 46.4154C390.871 47.0109 391.288 47.6659 391.645 48.2614C393.55 51.7151 395.575 55.1093 397.183 58.6822C397.897 60.1709 398.731 60.8855 400.16 61.3023C409.628 64.3988 418.918 67.9716 427.969 72.1995C428.624 72.4973 429.339 72.6759 430.53 73.1523C430.053 71.9613 429.815 71.1872 429.458 70.4726C427.016 65.1729 423.86 60.3495 420.287 55.7644C419.335 54.5139 418.203 53.6207 416.714 53.1443C409.628 51.0601 402.602 48.9759 395.516 46.8918C393.967 46.5345 392.359 46.2963 390.692 45.939ZM289.64 108.226C287.258 98.1028 284.995 88.5751 282.315 79.2857C279.1 79.2857 276.182 79.2857 273.086 79.2857C272.192 89.2897 271.061 98.9364 270.525 108.94C277.075 109.238 283.209 108.881 289.64 108.226ZM87.8923 84.8236C87.0587 85.2405 86.7014 85.3596 86.4632 85.5978C79.7343 90.5402 73.3627 95.84 67.4675 101.735C66.8125 102.39 66.2765 103.164 65.8002 103.938C61.5723 111.263 58.4162 119.004 56.5107 127.281C56.3321 128.055 55.9748 128.829 56.5107 129.782C56.9276 129.484 57.1657 129.306 57.4039 129.068C64.371 121.981 71.6954 115.312 79.4961 109.179C80.6275 108.285 80.9848 107.214 81.1635 105.963C82.1162 99.5915 84.0813 93.5771 86.7609 87.7415C87.0587 86.9078 87.3564 86.1337 87.8923 84.8236ZM249.147 106.678C255.579 107.809 261.593 108.702 267.964 108.762C268.858 98.8769 269.751 89.2302 270.644 79.3452C268.441 79.0475 266.416 78.8689 264.451 78.5711C261.771 78.1543 261.712 78.0947 260.64 80.5362C257.603 87.3246 254.566 94.1726 251.529 101.021C250.755 102.688 250.041 104.474 249.147 106.678ZM292.141 107.928C298.334 107.333 304.169 106.261 310.065 104.534C309.767 103.879 309.648 103.462 309.41 103.105C304.408 94.9467 299.406 86.7887 294.344 78.6307C294.165 78.3329 293.987 78.0352 293.749 77.8566C293.391 77.6184 292.855 77.2015 292.498 77.2611C289.997 77.6779 287.437 78.2734 284.816 78.8093C287.317 88.5751 289.699 98.1028 292.141 107.928ZM189.362 56.8958C190.314 53.9184 191.327 50.8219 192.398 47.3682C190.672 47.5468 189.242 47.7254 187.754 47.9041C178.464 48.8568 169.354 50.5242 160.243 52.5488C158.814 52.8465 157.861 53.5016 157.206 54.8116C155.3 58.5036 153.812 62.3146 152.918 66.3043C152.799 66.7807 152.799 67.2571 152.74 67.793C165.066 64.1606 177.214 60.5282 189.362 56.8958ZM246.587 106.201C250.815 96.6141 254.923 87.2055 259.092 77.6779C257.127 77.142 255.4 76.7847 253.792 76.1297C252.006 75.3556 250.874 75.7128 249.683 77.142C243.49 84.645 237.238 92.148 230.985 99.651C230.568 100.127 230.33 100.723 229.913 101.437C235.332 103.522 240.751 104.951 246.587 106.201ZM96.1099 473.551C95.9908 473.67 95.9313 473.849 95.8122 473.968C96.4077 474.861 97.0031 475.814 97.7177 476.588C100.695 480.161 103.613 483.733 106.65 487.187C107.781 488.497 109.21 489.569 110.699 490.522C121.418 497.489 132.851 503.206 144.582 508.207C145.058 508.446 145.654 508.565 146.666 508.863C146.011 507.791 145.594 507.195 145.237 506.6C143.093 503.086 140.83 499.633 138.865 496.06C137.972 494.512 136.96 493.499 135.292 492.844C122.311 487.723 109.806 481.649 97.8368 474.444C97.3009 474.087 96.7054 473.849 96.1099 473.551ZM205.499 528.751C207.107 531.788 208.953 533.813 210.799 535.897C211.871 537.088 213.121 537.684 214.669 537.981C228.723 540.542 242.835 542.209 257.127 543.043C257.96 543.102 258.735 543.043 259.806 543.043C259.568 541.495 259.39 540.185 259.211 538.875C258.973 537.565 258.735 536.314 258.437 534.825C240.692 533.932 223.304 532.086 205.499 528.751ZM296.011 76.3083C301.728 85.5977 307.266 94.649 312.923 103.819C318.282 102.212 323.403 100.544 328.346 97.8646C327.75 97.2095 327.393 96.7332 327.036 96.3163C322.808 92.0884 318.639 87.8606 314.293 83.6922C311.077 80.5957 307.683 77.6779 304.408 74.7005C303.753 74.1051 303.098 73.3905 302.026 73.8073C300.061 74.7005 298.155 75.4746 296.011 76.3083ZM424.098 56.3003C424.456 57.0744 424.575 57.4317 424.813 57.7294C428.386 62.7315 431.304 68.0907 433.566 73.8073C433.864 74.5814 434.638 75.3556 435.353 75.7128C444.047 80.1789 452.443 85.0618 460.542 90.4807C460.899 90.7188 461.375 90.8379 462.149 91.1952C461.792 90.2425 461.673 89.7065 461.435 89.1706C458.219 82.0249 453.991 75.4746 448.93 69.4603C448.275 68.6267 447.322 67.9716 446.429 67.4357C440.057 63.5056 433.447 60.1114 426.599 57.0744C425.944 56.8958 425.23 56.7171 424.098 56.3003ZM227.174 100.187C234.38 91.493 241.466 82.9776 248.671 74.2837C246.587 73.2118 244.681 72.1995 242.657 71.1277C232.534 77.9161 222.827 85.3 213.478 93.2198C216.337 95.6018 223.601 99.2342 227.174 100.187ZM46.1494 417.457C46.0303 417.576 45.9112 417.695 45.7921 417.814C46.0899 418.588 46.3876 419.362 46.7449 420.077C49.2459 424.662 51.6874 429.247 54.3075 433.713C55.4984 435.738 56.868 437.643 58.4162 439.43C66.1574 448.243 74.9705 455.925 84.4981 462.773C84.915 463.07 85.3913 463.249 86.4036 463.785C85.8082 462.475 85.4509 461.76 85.0936 460.986C82.7712 455.746 80.3893 450.565 78.2456 445.325C77.5906 443.777 76.8165 442.646 75.3873 441.693C65.4429 435.023 56.213 427.52 47.7572 419.005C47.2808 418.469 46.7449 417.993 46.1494 417.457ZM394.801 59.3372C394.384 58.2654 394.205 57.4317 393.789 56.7767C391.704 53.3229 389.501 49.9883 387.357 46.5345C386.583 45.284 385.392 44.8076 384.023 44.5694C374.733 43.0807 365.384 41.9493 355.976 41.8302C355.44 41.8302 354.904 41.9493 354.249 42.0089C355.797 44.9862 357.167 47.8445 358.715 50.5837C359.013 51.1197 359.906 51.4769 360.621 51.596C371.458 53.442 382.177 55.8835 392.717 58.9799C393.312 59.1586 393.848 59.2181 394.801 59.3372ZM13.3982 205.646C13.2196 205.646 13.0409 205.586 12.8623 205.586C5.83567 224.344 3.15602 243.399 9.22988 263.645C9.64672 262.454 9.88491 261.74 10.0636 261.085C11.9691 252.748 14.4105 244.53 17.3284 236.492C17.9238 234.884 17.9238 233.514 17.4475 231.906C15.006 224.106 13.6364 216.067 13.5173 207.909C13.5173 207.135 13.3982 206.36 13.3982 205.646ZM310.601 68.8053C308.874 69.9963 307.266 71.1277 305.718 72.1995C314.293 80.4171 322.689 88.5156 331.144 96.6141C335.313 94.4108 339.362 92.0289 342.935 88.992C339.66 85.8359 316.555 71.3659 310.601 68.8053ZM200.854 83.2754C204.129 86.7887 207.345 89.5279 211.096 91.9098C220.267 84.2282 229.616 77.0229 239.382 70.3535C239.56 70.2345 239.739 69.9963 239.917 69.8176C239.977 69.7581 239.977 69.639 240.037 69.5794C240.037 69.5199 240.037 69.4008 240.037 69.2221C238.965 68.2694 237.893 67.2571 236.761 66.2448C236.583 66.0661 236.345 66.0066 235.928 65.7684C224.018 70.8895 212.466 76.6656 200.854 83.2754ZM314.769 540.959C315.483 540.959 315.781 541.018 316.079 540.959C328.882 539.232 341.565 536.85 354.189 533.813C358.656 532.741 362.228 530.597 365.265 527.322C365.98 526.608 366.694 525.893 367.349 525.119C367.707 524.702 367.945 524.226 368.481 523.392C367.23 523.69 366.456 523.869 365.623 524.047C354.309 526.905 342.875 529.287 331.323 530.895C327.572 531.431 323.82 531.907 320.069 532.384C319.175 532.503 318.223 532.562 317.806 533.634C316.913 535.957 315.9 538.279 314.769 540.959ZM126.539 60.2304C127.313 60.1709 127.611 60.2304 127.789 60.1114C136.781 56.5385 145.951 53.6802 155.3 51.1792C156.074 50.941 156.968 50.286 157.384 49.631C160.064 45.6413 163.101 41.9493 166.555 38.5551C166.853 38.2574 167.031 37.8405 167.448 37.1855C166.733 37.2451 166.317 37.2451 165.9 37.3046C158.218 38.3765 150.715 40.2224 143.391 42.5448C142.498 42.8425 141.604 43.4976 140.89 44.1526C136.185 48.2614 131.898 52.787 128.206 57.7294C127.67 58.5036 127.253 59.2181 126.539 60.2304ZM313.102 66.8402C323.82 73.5691 334.479 80.2385 345.376 87.0269C348.294 84.5259 350.914 81.6081 353.237 78.0947C352.224 77.5588 351.391 77.142 350.557 76.7847C340.672 72.1995 330.609 68.0907 320.307 64.3988C316.138 62.9101 316.138 62.9101 313.34 66.3043C313.28 66.4234 313.221 66.6021 313.102 66.8402ZM201.331 35.8755C200.795 35.6968 200.497 35.5182 200.199 35.4586C191.267 35.2204 182.394 35.1609 173.522 36.3518C172.748 36.4709 171.914 36.8878 171.378 37.4237C168.103 40.8179 164.947 44.2717 161.791 47.7254C161.374 48.2018 161.136 48.7973 160.66 49.6905C161.672 49.5714 162.327 49.5714 162.982 49.4523C168.341 48.4996 173.701 47.4277 179.06 46.594C183.228 45.939 187.396 45.4626 191.565 45.1053C193.351 44.9267 194.661 44.4503 195.733 42.783C196.924 40.937 198.472 39.3888 199.842 37.7214C200.259 37.1855 200.735 36.6496 201.331 35.8755ZM533.607 209.576C533.785 209.516 533.964 209.457 534.142 209.397C535.274 189.985 528.962 172.716 518.898 156.519C518.66 156.817 518.601 157.055 518.66 157.293C520.208 164.975 520.506 172.776 519.851 180.576C519.732 182.184 520.149 183.435 520.863 184.864C524.793 192.367 528.664 199.929 532.535 207.432C532.892 208.147 533.249 208.861 533.607 209.576ZM199.187 81.0126C210.858 75.1769 222.53 69.3412 234.26 63.446C233.546 62.1955 232.831 61.0046 232.057 59.635C218.957 62.9101 206.214 66.8402 193.709 71.6636C194.721 75.1174 197.103 79.0475 199.187 81.0126ZM317.568 60.4091C330.132 65.5302 342.339 70.4726 354.725 75.5342C356.333 72.5568 357.584 69.4603 357.941 66.0661C351.748 63.3865 323.344 56.7767 318.759 56.9553C318.342 58.0867 317.984 59.2777 317.568 60.4091ZM342.578 30.6353C343.114 31.2307 343.352 31.5285 343.65 31.8262C345.198 33.1363 346.984 34.2081 348.175 35.8159C350.497 38.9124 353.594 39.4483 357.167 39.627C363.419 39.9247 369.672 40.5797 375.924 41.1157C378.128 41.2943 380.271 41.6516 383.07 42.0089C382.296 41.0561 381.998 40.5797 381.522 40.2224C377.711 37.0664 373.9 33.9699 370.089 30.8139C368.838 29.8016 367.469 29.3848 365.92 29.4443C359.966 29.623 354.011 29.742 348.056 29.9802C346.389 30.0398 344.662 30.3375 342.578 30.6353ZM230.866 53.2038C230.152 53.2038 229.675 53.1443 229.318 53.2038C221.1 54.3352 212.823 55.4071 204.606 56.6576C200.854 57.2531 197.222 58.0867 193.47 58.8609C192.577 59.0395 191.624 59.2181 191.624 60.5282C191.505 63.446 191.803 66.3043 192.756 69.2221C199.366 67.0189 205.678 64.8156 212.109 62.791C218.48 60.8259 224.911 59.0395 231.283 57.1935C231.104 55.7048 230.985 54.5734 230.866 53.2038ZM207.702 536.493C205.975 533.932 204.487 531.967 203.177 529.823C202.402 528.573 201.509 527.977 200.08 527.68C186.027 524.762 172.212 521.07 158.694 516.246C158.099 516.008 157.444 515.949 156.789 515.77C156.849 516.127 156.849 516.365 156.908 516.425C160.838 520.117 164.828 523.69 169.949 525.595C180.251 529.406 190.731 532.562 201.45 535.063C203.355 535.54 205.261 535.897 207.702 536.493ZM373.9 29.742C374.257 30.5162 374.317 30.7544 374.436 30.8139C378.842 34.2081 383.01 37.9001 386.762 42.0089C387.298 42.5448 388.191 42.9616 388.965 43.0807C396.885 44.629 404.686 46.6536 412.367 49.1546C412.963 49.3332 413.618 49.4523 414.868 49.7501C413.856 48.6782 413.38 48.0232 412.784 47.4873C409.569 44.6885 406.294 41.8898 403.078 39.091C398.731 35.3395 393.789 32.8385 388.072 32.0049C383.368 31.3498 378.842 30.5757 373.9 29.742ZM358.239 63.0292C358.536 60.6473 358.298 58.2654 357.762 55.8835C357.226 53.5611 357.167 53.5016 354.844 53.1443C351.51 52.7274 348.175 52.1915 344.84 51.8938C336.921 51.2388 328.941 50.6433 321.021 50.0478C320.307 49.9883 319.592 50.1669 318.818 50.2264C318.997 51.6556 319.116 52.787 319.175 53.7993C332.216 56.8958 345.079 59.8732 358.239 63.0292ZM58.9522 111.382C46.7449 124.185 37.7532 138.774 34.4781 156.459C35.014 156.281 35.1927 155.804 35.4904 155.388C40.5519 148.123 46.0899 141.334 51.9255 134.665C52.521 133.95 52.9379 132.938 53.057 131.985C54.1884 125.435 55.9748 119.064 58.5353 112.93C58.7735 112.454 58.8331 111.918 58.9522 111.382ZM177.035 33.0767C177.095 33.1958 177.154 33.3745 177.273 33.4935C177.75 33.4935 178.286 33.4935 178.762 33.4935C185.55 33.3745 192.339 32.9576 199.127 33.1958C202.819 33.3149 206.035 32.8981 208.715 30.1589C209.548 29.3252 210.62 28.7893 211.632 28.1938C212.883 27.4197 214.193 26.6456 215.741 25.6928C214.907 25.3951 214.491 25.1569 214.014 25.0378C207.762 23.7873 201.45 22.775 195.078 22.7154C194.125 22.7154 193.053 23.0132 192.22 23.4895C187.575 26.1692 183.049 28.9679 178.464 31.8262C177.928 32.124 177.512 32.6599 177.035 33.0767ZM426.599 497.965C427.374 497.608 427.909 497.429 428.386 497.132C437.08 492.308 445.297 486.889 453.158 480.816C459.053 476.23 463.995 470.752 468.64 465.035C468.997 464.559 469.236 464.023 469.831 463.011C468.997 463.428 468.7 463.487 468.461 463.666C458.576 470.931 448.096 477.243 437.139 482.84C436.484 483.138 435.889 483.733 435.472 484.329C432.614 488.676 429.755 493.082 426.599 497.965ZM456.075 74.5814C456.195 74.8792 456.314 75.1769 456.492 75.4151C460.244 81.0126 463.34 86.9673 465.722 93.2794C466.02 94.0535 466.734 94.8276 467.449 95.3636C474.416 100.544 481.026 106.023 487.338 112.037C487.636 112.335 488.053 112.454 488.827 112.871C481.681 96.495 470.843 83.8709 456.075 74.5814ZM135.114 45.9986C135.054 45.8795 134.995 45.8199 134.935 45.7008C134.161 45.939 133.387 46.1177 132.672 46.4749C127.432 49.0355 122.132 51.6556 116.892 54.2757C115.999 54.7521 115.165 55.3475 114.391 55.943C108.258 61.1832 102.66 67.0189 97.8368 73.5096C97.5391 73.9264 97.3604 74.4028 97.0031 75.1174C97.5986 74.9387 97.8368 74.8792 98.075 74.7601C105.399 70.294 113.021 66.4234 120.822 62.9101C121.656 62.5528 122.43 61.7191 122.966 60.945C126.181 56.1217 129.814 51.596 133.863 47.4277C134.34 47.0109 134.697 46.5345 135.114 45.9986ZM192.339 56.2408C205.38 54.2161 218.183 52.2511 231.283 50.2264C231.581 49.2737 231.879 48.0827 232.295 46.6536C228.842 46.5345 225.745 46.2368 222.649 46.2963C214.193 46.4749 205.678 46.7727 197.222 47.0109C196.329 47.0109 195.614 47.2491 195.138 48.1423C193.887 50.6433 192.696 53.2038 192.339 56.2408ZM355.976 50.7624C355.083 48.0827 353.654 46.1177 352.403 44.093C351.272 42.2471 349.902 41.4134 347.639 41.592C338.528 42.1875 329.358 42.6043 320.188 43.1998C318.878 43.2594 317.568 43.5571 316.079 43.7953C316.377 44.4503 316.555 44.9267 316.734 45.3435C317.329 47.2491 318.58 47.785 320.545 47.785C324.058 47.7254 327.631 47.9636 331.144 48.2614C338.409 48.9164 345.674 49.7501 352.939 50.5242C353.832 50.5242 354.725 50.6433 355.976 50.7624ZM362.943 26.8242C363.002 26.6456 363.003 26.5265 363.062 26.3478C362.883 26.1692 362.705 25.9905 362.467 25.8715C356.69 23.1323 350.974 20.3335 345.198 17.6539C344.483 17.2966 343.53 17.237 342.756 17.4157C338.171 18.3684 333.586 19.3808 329.001 20.3931C328.167 20.5717 327.333 20.9885 326.381 21.4054C326.798 21.7627 326.917 21.9413 327.155 22.0604C330.847 24.0255 334.539 26.0501 338.29 27.9556C339.064 28.3129 340.077 28.432 340.91 28.3129C347.58 27.4197 354.249 26.8838 361.037 26.9433C361.633 26.9433 362.288 26.8838 362.943 26.8242ZM236.642 40.6393C235.809 40.3415 235.273 40.1033 234.737 39.9842C231.521 39.3292 228.306 38.6742 225.09 38.1978C219.254 37.3641 213.419 36.7091 207.643 35.935C205.916 35.6968 204.546 36.1732 203.415 37.4832C201.867 39.2697 200.259 40.937 198.711 42.7234C198.353 43.1403 198.234 43.6762 197.936 44.3312C198.532 44.3908 198.83 44.4503 199.187 44.3908C206.094 44.1526 212.942 43.8548 219.85 43.7357C223.959 43.6762 228.068 44.0335 232.176 44.093C232.891 44.093 233.784 44.0335 234.26 43.6166C235.094 42.8425 235.749 41.7707 236.642 40.6393ZM310.362 37.8405C311.375 38.7933 312.089 39.3888 312.685 40.0438C313.578 41.1157 314.59 41.4134 316.019 41.1752C319.116 40.6988 322.212 40.3415 325.309 40.1629C332.157 39.7461 339.064 39.4483 345.972 39.1506C346.508 39.1506 347.044 39.0315 347.937 38.9124C347.282 38.1978 346.925 37.6619 346.448 37.2451C344.602 35.6968 342.637 34.2081 340.791 32.6003C339.422 31.3498 337.873 31.1116 336.146 31.4689C328.227 32.8981 320.366 34.6845 312.625 37.0069C311.911 37.1855 311.315 37.4832 310.362 37.8405ZM199.485 20.0358C199.961 20.274 200.14 20.3931 200.378 20.4526C206.214 21.4649 212.109 22.4772 217.944 23.43C218.897 23.5491 219.969 23.43 220.803 23.1323C224.911 21.6436 228.901 19.9762 232.95 18.428C233.308 18.3089 233.665 18.0707 234.499 17.5943C233.963 17.4157 233.784 17.2966 233.546 17.1775C229.675 15.6888 225.745 14.1406 221.815 12.771C220.922 12.4137 219.671 12.5923 218.659 12.8901C213.061 14.7956 207.464 16.8202 201.867 18.8448C201.152 19.1426 200.437 19.5594 199.485 20.0358ZM243.729 35.1609C243.312 34.8036 243.133 34.5654 242.835 34.4463C235.749 31.3498 228.544 28.7297 221.041 26.7051C220.029 26.4669 219.254 26.5265 218.421 27.0624C215.622 28.7893 212.823 30.4566 210.084 32.1835C209.667 32.4812 209.31 32.8981 208.715 33.5531C210.144 33.7317 211.216 33.9104 212.287 34.089C215.86 34.5654 219.433 34.9227 223.006 35.4586C227.77 36.2327 232.534 37.2451 237.357 38.0787C238.131 38.1978 239.143 38.3169 239.739 37.9596C241.108 37.1855 242.299 36.1732 243.729 35.1609ZM148.988 37.8405C149.643 38.0192 149.822 38.0787 149.941 38.0787C156.789 36.7687 163.637 35.5182 170.425 34.1486C171.14 34.0295 171.855 33.6722 172.45 33.2554C177.035 30.1589 181.62 27.0029 186.146 23.9064C186.503 23.6682 186.741 23.3109 187.039 23.0132C186.98 22.8345 186.92 22.6559 186.861 22.4772C183.466 22.8941 180.013 23.1323 176.678 23.7277C173.939 24.2041 170.961 24.5614 168.52 25.8715C162.684 28.9679 157.087 32.5408 151.37 35.9946C150.656 36.4114 150.001 37.0664 148.988 37.8405ZM545.992 304.138C545.397 304.674 545.218 304.793 545.159 304.912C542.598 312.117 539.502 319.084 535.631 325.694C535.333 326.23 535.155 326.944 535.155 327.599C535.155 335.281 534.559 342.903 533.607 350.466C533.547 350.883 533.726 351.299 533.845 352.193C541.765 336.948 544.206 320.93 545.992 304.138ZM334.896 29.2061C334.062 28.6106 333.705 28.1938 333.229 27.9556C330.132 26.4669 327.036 24.9782 323.999 23.43C322.748 22.775 321.617 22.8941 320.426 23.4895C314.828 26.2883 309.171 29.0275 303.574 31.8262C303.098 32.0644 302.74 32.4812 302.085 32.9576C303.514 33.7317 304.765 34.2677 305.777 35.0418C307.087 35.9946 308.338 35.8159 309.767 35.3991C315.722 33.7317 321.736 32.1835 327.691 30.6353C329.894 30.0398 332.216 29.7421 334.896 29.2061ZM338.588 15.5102C337.635 15.0338 337.159 14.6765 336.682 14.5574C330.132 12.771 323.582 10.9845 317.032 9.3172C316.138 9.07901 314.948 9.25766 314.173 9.67449C311.613 11.0441 309.112 12.5923 306.611 14.1406C306.313 14.3192 306.194 14.736 306.015 14.9742C311.196 16.582 316.198 18.1898 321.26 19.6785C322.034 19.9167 323.046 19.738 323.939 19.4998C326.738 18.7257 329.537 17.773 332.335 16.9988C334.181 16.4629 336.146 16.1056 338.588 15.5102ZM15.5419 356.718C15.3633 356.778 15.2442 356.897 15.0656 356.956C19.8294 372.677 25.7246 387.862 35.9668 401.022C36.0859 400.367 35.9668 399.831 35.8477 399.295C34.2399 392.983 32.6917 386.611 31.0243 380.299C30.7266 379.108 30.1311 377.917 29.357 377.024C24.5932 371.129 20.2462 364.995 16.5542 358.386C16.3161 357.79 15.8992 357.254 15.5419 356.718ZM366.694 529.585C366.814 529.704 366.873 529.823 366.992 529.942C367.766 529.764 368.6 529.585 369.374 529.287C379.259 526.072 388.965 522.32 398.374 517.795C403.019 515.591 407.246 512.733 411.236 509.458C411.593 509.16 411.891 508.684 412.427 508.088C411.772 508.208 411.534 508.208 411.296 508.267C399.267 513.567 386.822 517.973 374.197 521.606C373.661 521.784 373.007 521.963 372.649 522.38C370.625 524.821 368.719 527.263 366.694 529.585ZM253.375 30.8735C253.137 30.5162 253.078 30.278 252.899 30.0993C248.314 26.7647 243.669 23.43 239.084 20.0953C238.012 19.3808 236.94 19.5594 235.928 19.9167C232.355 21.1672 228.842 22.4772 225.328 23.7873C224.852 23.9659 224.435 24.3232 223.959 24.6805C224.256 24.9187 224.376 25.0378 224.495 25.0973C231.759 27.3601 238.905 29.9802 245.872 33.1363C246.349 33.3745 247.063 33.4936 247.54 33.3149C249.505 32.5408 251.351 31.7071 253.375 30.8735ZM318.401 21.5245C317.568 21.1672 317.151 20.8694 316.674 20.7504C313.757 19.9167 310.898 18.9639 307.98 18.2493C302.74 16.9393 302.681 16.9393 298.87 20.8694C296.309 23.4895 293.868 26.2883 291.069 29.3252C293.332 30.0398 295.178 30.5162 296.964 31.1712C298.274 31.7071 299.346 31.5285 300.537 30.8139C303.455 29.087 306.373 27.4792 309.35 25.931C312.149 24.4423 315.067 23.1323 318.401 21.5245ZM276.956 27.6579C277.73 23.2514 278.504 19.083 279.278 14.9147C276.301 14.0215 263.915 14.4978 261.474 15.5102C263.379 19.3808 265.285 23.3109 267.309 27.1815C267.548 27.5983 268.381 28.0152 268.917 28.0152C271.478 27.8961 274.038 27.777 276.956 27.6579ZM264.987 28.1938C263.141 23.9064 261.116 19.9762 258.794 16.2247C258.318 15.3911 257.603 15.4506 256.829 15.5697C253.852 16.0461 250.874 16.4629 247.897 16.9988C245.872 17.3561 243.907 17.8921 241.823 18.3089C242.002 18.7257 242.002 18.9639 242.121 19.0235C246.646 22.4772 251.232 25.931 255.757 29.3252C256.174 29.623 256.829 29.9207 257.365 29.8016C259.806 29.3848 262.248 28.7893 264.987 28.1938ZM279.398 27.7174C281.958 28.0152 284.161 28.0747 286.246 28.6106C288.032 29.0275 288.985 28.3129 290.057 27.0624C292.558 24.1446 295.237 21.3458 297.798 18.4875C298.274 17.9516 298.751 17.4157 299.227 16.8202C296.071 15.5697 285.233 14.3788 281.72 14.9742C281.005 19.0235 280.231 23.1918 279.398 27.7174ZM225.983 10.7463C226.638 11.3418 226.817 11.58 226.996 11.6991C230.33 13.2473 233.725 14.6765 237.059 16.2843C238.072 16.7607 239.024 16.582 239.977 16.3438C243.193 15.6293 246.349 14.9147 249.564 14.2597C251.767 13.8428 253.971 13.4855 256.531 13.0092C255.579 11.1632 254.328 9.97223 253.256 8.60263C251.887 6.75665 250.1 6.33982 247.956 6.75665C245.991 7.11394 243.967 7.29258 242.002 7.64987C236.821 8.60263 231.64 9.61494 225.983 10.7463ZM282.435 11.9968C283.328 12.1755 283.625 12.235 283.983 12.2946C288.747 12.8305 293.51 13.0687 298.215 13.9619C301.132 14.4978 303.395 14.081 305.479 12.0564C306.254 11.2823 307.266 10.8059 308.159 10.2104C308.933 9.67449 309.767 9.19811 310.898 8.42399C309.767 8.12625 309.112 7.88806 308.457 7.76896C304.824 7.23303 301.132 6.6971 297.5 6.33982C293.749 5.92298 289.997 5.74434 286.186 5.44661C285.352 5.38706 284.459 5.32751 284.102 6.33982C283.566 8.12625 283.03 9.97223 282.435 11.9968ZM483.765 446.695C491.149 442.05 511.693 413.824 511.693 408.822C511.395 409.12 511.097 409.299 510.919 409.537C505.5 416.087 499.486 422.042 493.114 427.64C492.34 428.295 491.745 429.307 491.328 430.319C489.72 433.892 488.172 437.524 486.564 441.157C485.671 443.003 484.718 444.849 483.765 446.695ZM281.72 5.38706C275.17 4.55339 257.484 5.38706 254.864 6.57801C256.234 8.36444 257.544 10.2104 259.032 11.9373C259.449 12.4137 260.342 12.7114 260.938 12.6519C266.654 12.4732 272.311 12.1755 278.028 11.9373C278.623 11.9373 279.159 11.8778 279.934 11.8182C280.529 9.73403 281.124 7.64987 281.72 5.38706ZM351.569 16.8202C351.51 17.0584 351.45 17.237 351.331 17.4752C352.046 17.8325 352.76 18.1898 353.475 18.5471C357.822 20.8694 362.288 23.0727 366.516 25.5737C368.481 26.7051 370.446 27.2411 372.649 27.4792C376.401 27.8365 380.152 28.3725 383.844 28.8488C384.976 28.9679 386.107 29.1466 387.179 29.3252C386.762 28.6702 386.286 28.1938 385.69 27.8961C379.199 24.7996 372.709 21.584 366.099 18.7853C361.514 16.8798 356.452 16.9988 351.569 16.8202ZM405.758 37.9596C405.936 38.1383 406.055 38.3765 406.234 38.5551C410.998 42.4257 415.464 46.594 419.573 51.1197C420.168 51.7747 421.061 52.1915 421.836 52.6083C427.552 55.2284 433.269 57.8485 438.985 60.4686C439.462 60.7068 439.998 60.8855 440.474 61.1237C430.41 50.941 419.394 42.4852 405.758 37.9596ZM3.98969 251.2C1.31005 260.727 2.14371 289.548 5.06155 294.431C5.18065 293.895 5.35929 293.538 5.35929 293.121C5.71658 285.678 6.72888 278.294 7.97938 270.91C8.15803 269.898 7.91984 268.766 7.68165 267.694C6.72888 263.526 5.65703 259.417 4.70426 255.249C4.40653 253.939 4.22788 252.569 3.98969 251.2ZM543.789 239.528C543.968 239.469 544.146 239.409 544.325 239.35C543.968 225.892 540.752 212.97 536.941 200.167C536.643 200.644 536.584 201.12 536.584 201.597C536.465 205.944 536.286 210.291 536.227 214.638C536.227 215.59 536.465 216.603 536.763 217.555C538.906 224.344 541.05 231.132 543.253 237.921C543.372 238.516 543.611 238.993 543.789 239.528ZM213.359 11.8778C213.3 11.6991 213.3 11.5205 213.24 11.3418C210.144 10.925 207.047 11.1036 204.129 12.0564C196.924 14.3788 189.838 16.8798 182.692 19.3212C182.216 19.4999 181.859 19.8571 181.382 20.0953C184.836 20.274 188.23 20.2144 191.565 19.9762C192.756 19.9167 194.066 19.6189 195.197 19.1426C200.556 17.0584 205.916 14.8551 211.275 12.6519C211.99 12.4137 212.645 12.1159 213.359 11.8778ZM275.646 57.8485C274.753 64.101 273.8 70.3535 273.502 76.8442C276.361 76.9038 278.862 77.142 281.541 76.3679C279.695 69.9367 278.147 63.7438 275.646 57.8485ZM262.843 75.8915C265.761 76.1892 268.203 76.4274 270.882 76.7252C271.597 70.294 272.252 64.2201 272.907 58.1463C272.728 58.0867 272.55 58.0272 272.311 57.9676C268.917 63.5651 266.059 69.4603 262.843 75.8915ZM279.278 57.9676C279.1 58.0272 278.981 58.1463 278.802 58.2058C280.529 64.1606 282.315 70.1154 284.042 76.0106C287.377 76.0701 289.64 75.5937 291.545 74.4028C287.615 68.8053 283.625 63.2078 279.278 57.9676ZM71.6954 455.984C74.7918 461.284 94.2044 479.744 97.42 480.577C95.2167 477.362 93.073 474.146 90.8102 471.05C90.0956 470.037 89.2024 469.144 88.2496 468.37C83.3667 464.678 78.4243 460.986 73.5414 457.354C73.065 456.937 72.529 456.58 71.6954 455.984ZM260.342 75.296C263.32 69.5199 266.238 63.9224 269.155 58.3249C268.977 58.2058 268.798 58.0272 268.619 57.9081C263.558 62.9101 258.556 67.9121 253.316 73.0927C255.698 74.4028 257.901 74.8196 260.342 75.296ZM75.03 90.4807C75.1491 90.5998 75.2682 90.7784 75.3873 90.8975C75.6851 90.7188 75.9828 90.5998 76.221 90.3616C80.8657 86.9078 85.5104 83.454 90.0956 79.9407C90.7506 79.4643 91.2866 78.8093 91.7629 78.0947C94.1448 74.8792 96.4672 71.604 98.8491 68.3289C99.1468 67.9121 99.385 67.4357 99.6828 67.0189C99.5041 66.8998 99.385 66.7807 99.2064 66.6616C90.6315 74.0455 82.2353 81.6676 75.03 90.4807ZM155.896 519.76C156.015 519.641 156.074 519.462 156.193 519.343C154.764 517.854 153.276 516.425 151.906 514.817C150.894 513.626 149.703 512.852 148.274 512.257C140.771 508.922 133.327 505.468 125.824 502.074C125.229 501.836 124.633 501.538 124.038 501.3C123.978 501.479 123.859 501.598 123.8 501.776C133.982 508.684 144.641 514.758 155.896 519.76ZM283.209 57.9081C283.09 58.0867 282.97 58.2058 282.792 58.3845C284.4 60.5282 286.007 62.6719 287.615 64.8156C289.521 67.4357 291.426 70.1154 293.332 72.795C293.808 73.5096 294.344 74.2241 295.356 73.8669C297.083 73.2714 298.751 72.6164 300.894 71.8422C294.94 66.6616 289.163 62.1955 283.209 57.9081ZM250.636 72.4377C255.519 67.4953 260.164 62.791 264.808 58.0867C257.96 61.3023 251.529 65.1729 244.919 69.639C247.063 70.7108 248.79 71.5445 250.636 72.4377ZM488.648 106.38C490.256 110.25 491.804 114.062 493.471 117.932C493.71 118.468 494.126 118.885 494.543 119.302C498.354 123.768 502.225 128.174 506.095 132.581C506.393 132.938 506.81 133.295 507.167 133.593C502.225 123.589 495.734 114.836 488.648 106.38ZM32.6917 150.922C29.1188 155.328 19.5912 178.135 19.8889 181.529C20.3653 180.636 20.7821 179.921 21.199 179.207C23.8786 174.443 26.4987 169.679 29.2379 164.975C30.0716 163.546 30.6075 162.176 30.8457 160.568C31.203 157.889 31.9175 155.328 32.4535 152.648C32.5726 152.112 32.6321 151.636 32.6917 150.922ZM287.258 57.6699C292.617 61.8978 297.976 66.1852 303.455 70.5917C305.003 69.639 306.492 68.6862 308.397 67.4953C301.192 63.6247 294.463 60.2304 287.258 57.6699ZM308.04 544.591C307.266 544.472 307.028 544.412 306.789 544.412C305.956 544.412 305.122 544.472 304.289 544.532C291.426 545.663 278.504 546.139 265.583 545.723C264.987 545.723 264.332 545.842 263.737 545.961C263.737 547.152 264.392 547.271 265.047 547.271C266.654 547.39 268.203 547.509 269.81 547.568C281.124 547.747 292.439 547.152 303.693 546.08C305.063 545.901 306.492 545.901 308.04 544.591ZM260.402 57.0744C260.283 56.8958 260.223 56.7767 260.104 56.598C252.958 58.9799 245.872 61.5405 238.25 64.9347C239.262 65.6493 239.858 66.0066 240.394 66.4234C242.538 68.2098 242.538 68.2098 244.919 66.7211C249.386 63.9224 253.911 61.1832 258.377 58.3845C259.032 57.9676 259.747 57.4913 260.402 57.0744ZM351.867 14.2597C351.927 14.1406 351.986 14.0215 351.986 13.9024C351.688 13.7833 351.45 13.6046 351.152 13.5451C342.816 10.925 334.36 8.78127 325.785 7.35213C324.713 7.17349 323.582 7.35213 322.451 7.35213C322.629 7.94761 322.927 8.1858 323.165 8.24534C329.954 10.3295 336.802 12.4137 343.59 14.4383C344.245 14.6169 344.9 14.7956 345.555 14.7956C347.699 14.6169 349.783 14.4383 351.867 14.2597ZM291.069 56.0026C297.5 59.2181 303.991 62.3742 310.541 65.6493C311.553 64.4583 312.447 63.446 313.578 62.0764C305.956 59.5754 298.691 57.3722 291.069 56.0026ZM268.739 30.4566C270.585 35.1609 272.311 39.5079 273.979 43.9144C274.217 43.9144 274.396 43.8548 274.634 43.8548C275.229 39.4483 275.884 35.0418 276.539 30.4566C273.86 30.4566 271.478 30.4566 268.739 30.4566ZM277.254 43.6166C277.432 43.6762 277.611 43.7358 277.79 43.7953C280.648 39.6865 283.506 35.5777 286.543 31.1712C283.804 30.8139 281.541 30.0398 279.04 30.6353C278.326 34.9822 277.552 39.2697 277.254 43.6166ZM271.24 43.7357C269.572 39.0315 268.024 34.8632 266.118 30.933C263.201 30.933 261.116 31.4094 259.628 32.243C263.32 35.8755 267.012 39.5674 271.24 43.7357ZM256.65 55.0498C252.006 54.9307 236.642 58.2654 234.796 59.5754C235.451 60.5877 236.106 61.6 236.821 62.6124C243.609 60.0518 250.1 57.5508 256.65 55.0498ZM281.184 43.0807C281.363 43.2594 281.541 43.3785 281.72 43.5571C286.305 40.282 290.95 36.9473 295.833 33.434C294.82 33.0172 294.225 32.779 293.629 32.6003C288.508 31.2307 289.699 31.2307 287.079 34.7441C284.995 37.4832 283.149 40.3415 281.184 43.0807ZM250.457 35.1013C255.995 38.0787 261.295 40.9966 266.654 43.8548C266.773 43.6762 266.893 43.5571 267.012 43.3785C264.451 40.8775 261.95 38.3169 259.39 35.8159C255.698 32.243 255.638 32.3026 250.993 34.5654C250.874 34.625 250.815 34.6845 250.457 35.1013ZM315.067 59.8732C315.543 58.6227 315.9 57.5508 316.436 56.0621C308.874 55.0498 301.668 54.097 294.523 53.1443C294.463 53.3229 294.463 53.5016 294.404 53.6802C301.132 55.7644 307.921 57.789 315.067 59.8732ZM254.923 52.2511C254.864 52.0724 254.804 51.8938 254.745 51.7151C247.718 52.132 240.632 52.0129 233.248 53.0847C233.486 54.4543 233.665 55.5262 233.844 56.6576C241.108 55.1093 248.016 53.6802 254.923 52.2511ZM260.7 546.854C260.7 545.544 259.866 545.544 259.092 545.484C256.591 545.306 254.09 545.187 251.529 545.008C241.644 544.412 231.819 543.222 222.053 541.673C221.577 541.614 221.1 541.673 220.148 541.673C226.222 543.936 255.757 547.628 260.7 546.854ZM285.531 43.6762C285.65 43.8548 285.769 44.0335 285.829 44.2121C291.784 41.8898 297.679 39.5079 304.169 36.9473C302.443 36.1136 301.252 35.3991 300.061 34.9822C299.465 34.8036 298.512 34.8631 297.976 35.2204C293.808 37.9596 289.699 40.8179 285.531 43.6762ZM295.416 50.1669C295.416 50.4051 295.356 50.6433 295.356 50.8815C298.87 51.2983 302.383 51.8342 305.956 52.1915C309.469 52.5488 312.923 53.5016 316.615 53.5016C316.555 52.7274 316.615 52.2511 316.496 51.7747C316.377 51.2388 316.198 50.7028 316.079 50.1669C309.052 50.1669 302.204 50.1669 295.416 50.1669ZM242.954 38.7337C243.014 38.9124 243.133 39.091 243.193 39.3292C249.326 41.1157 255.519 42.8425 261.771 44.629C261.652 44.3312 261.652 44.2121 261.652 44.2121C257.008 41.7111 252.363 39.2101 247.718 36.7687C247.361 36.59 246.825 36.5305 246.527 36.6496C245.336 37.2451 244.145 38.0192 242.954 38.7337ZM293.927 47.4277C300.954 47.3682 307.802 47.785 314.828 47.3682C313.578 44.093 313.459 43.9739 310.601 44.3908C306.075 45.1053 301.549 45.8795 297.024 46.7131C296.011 46.8918 294.94 47.1895 293.927 47.4277ZM310.422 41.8302C308.278 38.8528 307.504 38.5551 304.467 39.627C300.537 41.0561 296.607 42.5448 292.677 44.0335C291.903 44.3312 291.248 44.7481 290.473 45.1053C290.533 45.2244 290.593 45.284 290.652 45.4031C297.202 44.2717 303.693 43.0807 310.422 41.8302ZM233.784 50.286C241.228 49.8692 248.254 49.5119 255.281 49.1546C255.281 48.9759 255.281 48.7378 255.281 48.5591C248.611 47.9041 242.002 47.3086 235.213 46.6536C234.737 47.9041 234.32 48.8568 233.784 50.286ZM237.297 44.3312C244.205 45.0458 250.874 45.7008 257.484 46.4154C256.889 45.8199 256.234 45.5222 255.519 45.3435C251.112 44.093 246.646 42.8425 242.24 41.6516C239.441 40.937 238.965 41.2347 237.297 44.3312ZM153.216 31.5285C148.929 32.779 132.494 42.2471 129.933 44.9267C133.446 43.6167 136.662 42.4257 139.818 41.2347C140.354 41.0561 140.949 40.8775 141.426 40.5202C145.237 37.6023 149.048 34.6845 153.216 31.5285ZM217.528 8.90037C219.314 9.85313 221.1 9.79358 222.946 9.25765C226.519 8.30489 230.092 7.47122 233.725 6.75665C237.595 5.92299 241.525 5.26796 245.455 4.55339C235.987 4.97022 226.698 6.63756 217.528 8.90037ZM312.327 544.293C312.387 544.472 312.447 544.71 312.447 544.889C319.235 544.115 326.023 542.983 332.633 541.197C326.142 541.911 319.711 542.805 313.28 543.757C312.923 543.757 312.625 544.115 312.327 544.293ZM535.214 356.659C532.356 359.338 530.093 366.008 530.51 370.355C532.237 365.412 533.726 361.006 535.214 356.659ZM300.18 3.95791C302.8 4.37475 305.42 4.91068 308.1 5.20841C310.72 5.50615 313.34 6.57801 316.079 5.92299C310.839 4.55339 305.479 4.07701 300.18 3.95791ZM37.0386 407.453C38.1105 410.133 39.5396 412.514 41.2665 414.777C40.671 411.919 39.5396 409.299 37.0386 407.453ZM419.454 505.707C422.193 504.694 425.051 502.789 426.302 501.121C423.92 502.491 421.3 503.086 419.454 505.707ZM3.8706 303.602C4.10879 305.448 4.34698 306.758 4.52562 308.068C4.82336 306.698 5.53793 305.269 3.8706 303.602Z" fill="url(#paint0_linear_314_1953)"/>
</g>
<defs>
<linearGradient id="paint0_linear_314_1953" x1="275" y1="0" x2="275" y2="550.019" gradientUnits="userSpaceOnUse">
<stop stop-color="#4C4C79"/>
<stop offset="0.73" stop-color="#131327"/>
<stop offset="1" stop-color="#4C4C79"/>
</linearGradient>
</defs>
</svg>
