<svg width="962" height="964" viewBox="0 0 962 964" fill="none" xmlns="http://www.w3.org/2000/svg">
<g opacity="0.15">
<path d="M670.694 806.415L849.647 550.845L761.675 251.775L473.023 134.411L201.052 287.131L150.561 594.934L359.572 826.037L670.694 806.415Z" stroke="#9C9CCA" stroke-width="0.570797"/>
<path d="M638.243 812.415L833.898 579.243L773.828 281.097L503.267 142.488L225.954 267.791L150.709 562.65L334.196 805.031L638.243 812.415Z" stroke="#9C9CCA" stroke-width="1.14159"/>
<path d="M605.652 816.784L815.635 606.801L782.604 311.926L531.433 154.206L251.258 252.408L153.057 532.582L310.777 783.754L605.652 816.784Z" stroke="#9C9CCA" stroke-width="1.71239"/>
<path d="M573.413 819.379L795.349 633.152L788.32 343.756L557.619 169.111L276.967 240.729L157.702 504.681L289.633 762.204L573.413 819.379Z" stroke="#9C9CCA" stroke-width="2.28319"/>
<path d="M542.009 817.039L773.543 654.917L791.319 373.056L581.951 183.703L303.097 229.445L164.74 475.837L271.066 737.341L542.009 817.039Z" stroke="#9C9CCA" stroke-width="2.85398"/>
<path d="M511.927 812.78L750.74 674.902L791.983 402.473L604.6 200.639L329.693 221.384L174.273 449.088L255.375 712.284L511.927 812.78Z" stroke="#9C9CCA" stroke-width="3.42478"/>
<path d="M483.633 805.061L727.459 691.363L790.707 430.097L625.752 218.001L356.806 214.789L186.393 422.878L242.836 685.574L483.633 805.061Z" stroke="#9C9CCA" stroke-width="3.99558"/>
<path d="M456.06 796.98L702.702 707.21L786.388 458.664L644.103 238.503L382.989 212.512L199.67 400.263L232.19 660.376L456.06 796.98Z" stroke="#9C9CCA" stroke-width="4.56637"/>
<path d="M429.654 787.075L676.997 720.8L779.466 486.355L659.899 260.282L408.333 212.819L214.202 379.706L223.691 635.274L429.654 787.075Z" stroke="#9C9CCA" stroke-width="5.13717"/>
<path d="M404.837 773.916L650.864 730.535L770.388 511.392L673.404 281.505L432.944 213.985L230.078 359.676L217.569 608.868L404.837 773.916Z" stroke="#9C9CCA" stroke-width="5.70797"/>
<path d="M382.018 759.178L624.82 737.936L759.618 535.114L684.907 303.442L456.946 217.373L247.393 341.719L214.047 582.845L382.018 759.178Z" stroke="#9C9CCA" stroke-width="6.27876"/>
<path d="M361.219 744.319H600.006L748.887 558.531L695.752 326.857L480.612 223.752L265.473 326.857L212.338 558.531L361.219 744.319Z" stroke="#9C9CCA" stroke-width="6.84956"/>
</g>
</svg>
